<svg width="152" height="19" viewBox="0 0 152 19" fill="none" xmlns="http://www.w3.org/2000/svg">
<path d="M26.0245 5.35461H24.2703C23.74 5.35461 23.3321 5.51779 23.0873 6.04811L19.7422 13.6766H22.1082C22.1082 13.6766 22.5162 12.6568 22.5978 12.412C22.8425 12.412 25.1678 12.412 25.4942 12.412C25.5757 12.6975 25.7797 13.6358 25.7797 13.6358H27.901L26.0245 5.35461ZM23.2505 10.6986C23.4544 10.2091 24.1479 8.37338 24.1479 8.37338C24.1479 8.41417 24.3519 7.88385 24.4335 7.59829L24.5967 8.33258C24.5967 8.33258 25.0454 10.3315 25.127 10.7394H23.2505V10.6986Z" fill="#3362AB"/>
<path d="M19.9042 10.9432C19.9042 12.6566 18.3541 13.7988 15.9472 13.7988C14.9273 13.7988 13.9483 13.5948 13.418 13.3501L13.7443 11.4735L14.0299 11.5959C14.7642 11.9223 15.2537 12.0447 16.1512 12.0447C16.8039 12.0447 17.4974 11.7999 17.4974 11.2288C17.4974 10.8616 17.2118 10.6169 16.3143 10.2089C15.4577 9.80099 14.3154 9.14829 14.3154 7.96526C14.3154 6.3335 15.9064 5.23206 18.1501 5.23206C19.0068 5.23206 19.7411 5.39523 20.1898 5.5992L19.8634 7.39414L19.7003 7.23097C19.2923 7.06779 18.762 6.90461 17.9869 6.90461C17.1302 6.94541 16.7223 7.31255 16.7223 7.63891C16.7223 8.00605 17.2118 8.29161 17.9869 8.65876C19.2923 9.27067 19.9042 9.96417 19.9042 10.9432Z" fill="#3362AB"/>
<path d="M0 5.43637L0.0407941 5.27319H3.54908C4.03861 5.27319 4.40576 5.43637 4.52814 5.96669L5.30323 9.63816C4.52814 7.68004 2.7332 6.08908 0 5.43637Z" fill="#F9B50B"/>
<path d="M10.2378 5.35537L6.68874 13.6366H4.28189L2.24219 6.70157C3.71077 7.63984 4.9346 9.10842 5.38333 10.1283L5.6281 10.985L7.83098 5.31458H10.2378V5.35537Z" fill="#3362AB"/>
<path d="M11.1817 5.31458H13.4254L11.9976 13.6366H9.75391L11.1817 5.31458Z" fill="#3362AB"/>
<path d="M68.498 9.51546C68.498 14.552 64.4029 18.6941 59.3193 18.6941C54.2828 18.6941 50.1406 14.552 50.1406 9.51546C50.1406 4.47896 54.2357 0.336792 59.2722 0.336792C64.4029 0.336792 68.498 4.47896 68.498 9.51546Z" fill="#F9B50B"/>
<path d="M56.2126 9.56253C56.2126 8.90355 56.1185 8.24457 56.0243 7.63266H50.3759C50.423 7.30317 50.5171 7.02074 50.6113 6.64418H55.6478C55.5536 6.31469 55.4124 5.9852 55.2712 5.65571H50.9878C51.129 5.32622 51.3173 5.0438 51.5056 4.66724H54.7534C54.5652 4.33775 54.3298 4.00826 54.0474 3.67877H52.2587C52.5411 3.34928 52.8236 3.06686 53.2001 2.73737C51.5997 1.23112 49.4345 0.336792 47.0339 0.336792C42.0445 0.478002 37.9023 4.47896 37.9023 9.51546C37.9023 14.552 41.9974 18.6941 47.081 18.6941C49.4816 18.6941 51.5997 17.7527 53.2472 16.2936C53.5767 16.0111 53.8591 15.6816 54.1886 15.3051H52.3058C52.0704 15.0227 51.8351 14.6932 51.6468 14.3637H54.8476C55.0359 14.0813 55.2241 13.7518 55.3653 13.3752H51.082C50.9408 13.0928 50.7995 12.7633 50.7054 12.3867H55.7419C56.0243 11.5395 56.2126 10.5981 56.2126 9.56253Z" fill="#C8191C"/>
<path d="M50.3301 11.8687L50.4713 11.0214C50.4242 11.0214 50.3301 11.0685 50.2359 11.0685C49.9064 11.0685 49.8594 10.8802 49.9064 10.7861L50.1889 9.09157H50.7066L50.8478 8.15017H50.3771L50.4713 7.58533H49.4828C49.4828 7.58533 48.918 10.7861 48.918 11.1627C48.918 11.7275 49.2475 12.0099 49.7182 12.0099C50.0006 12.0099 50.2359 11.9158 50.3301 11.8687Z" fill="white"/>
<path d="M50.6602 10.3141C50.6602 11.6791 51.6016 12.0086 52.3547 12.0086C53.0607 12.0086 53.3902 11.8674 53.3902 11.8674L53.5785 10.926C53.5785 10.926 53.0607 11.1613 52.543 11.1613C51.4603 11.1613 51.6486 10.3611 51.6486 10.3611H53.6256C53.6256 10.3611 53.7668 9.74923 53.7668 9.46681C53.7668 8.85489 53.4373 8.0547 52.3547 8.0547C51.4133 8.00763 50.6602 9.09025 50.6602 10.3141ZM52.3547 8.90196C52.8725 8.90196 52.7783 9.51388 52.7783 9.56095H51.6957C51.7428 9.51388 51.8369 8.90196 52.3547 8.90196Z" fill="white"/>
<path d="M58.5189 11.8691L58.7072 10.7865C58.7072 10.7865 58.2365 11.0218 57.86 11.0218C57.201 11.0218 56.8715 10.504 56.8715 9.89213C56.8715 8.71537 57.4363 8.10346 58.1424 8.10346C58.6131 8.10346 59.0367 8.38588 59.0367 8.38588L59.1779 7.35034C59.1779 7.35034 58.6131 7.11499 58.0482 7.11499C56.9185 7.11499 55.8359 8.10346 55.8359 9.9392C55.8359 11.163 56.4008 11.9632 57.5775 11.9632C58.0012 12.0103 58.5189 11.8691 58.5189 11.8691Z" fill="white"/>
<path d="M45.0115 8.00903C44.3525 8.00903 43.8348 8.19731 43.8348 8.19731L43.6936 9.04458C43.6936 9.04458 44.1172 8.8563 44.7762 8.8563C45.1057 8.8563 45.3881 8.90336 45.3881 9.18579C45.3881 9.37407 45.341 9.42114 45.341 9.42114H44.9174C44.0701 9.42114 43.1758 9.75063 43.1758 10.8803C43.1758 11.7746 43.7406 11.9629 44.1172 11.9629C44.7762 11.9629 45.1057 11.5393 45.1527 11.5393L45.1057 11.9159H45.9058L46.2824 9.23286C46.2824 8.0561 45.341 8.00903 45.0115 8.00903ZM45.1998 10.1743C45.1998 10.3155 45.1057 11.1157 44.5408 11.1157C44.2584 11.1157 44.1643 10.8803 44.1643 10.7391C44.1643 10.5037 44.3055 10.1743 45.0586 10.1743C45.1527 10.1743 45.1998 10.1743 45.1998 10.1743Z" fill="white"/>
<path d="M47.2197 11.9628C47.4551 11.9628 48.6789 12.0098 48.6789 10.6919C48.6789 9.46803 47.5021 9.70339 47.5021 9.23268C47.5021 8.99733 47.6904 8.90319 48.0199 8.90319C48.1611 8.90319 48.6789 8.95026 48.6789 8.95026L48.8201 8.05593C48.8201 8.05593 48.4906 7.96179 47.8787 7.96179C47.1727 7.96179 46.4195 8.24421 46.4195 9.23268C46.4195 10.3624 47.6434 10.2682 47.6434 10.6919C47.6434 10.9743 47.3139 11.0213 47.0785 11.0213C46.6549 11.0213 46.1842 10.8801 46.1842 10.8801L46.043 11.7745C46.1371 11.8686 46.4195 11.9628 47.2197 11.9628Z" fill="white"/>
<path d="M66.6131 7.2561L66.4248 8.57407C66.4248 8.57407 66.0482 8.10337 65.4834 8.10337C64.5891 8.10337 63.8359 9.18598 63.8359 10.4569C63.8359 11.2571 64.2125 12.0573 65.0598 12.0573C65.6246 12.0573 66.0012 11.6807 66.0012 11.6807L65.9541 12.0102H66.9426L67.6486 7.35024L66.6131 7.2561ZM66.1424 9.79789C66.1424 10.3157 65.907 11.0217 65.3422 11.0217C65.0127 11.0217 64.8244 10.7393 64.8244 10.2215C64.8244 9.42133 65.1539 8.95063 65.6246 8.95063C65.9541 8.9977 66.1424 9.23305 66.1424 9.79789Z" fill="white"/>
<path d="M39.6914 11.916L40.2562 8.43286L40.3504 11.916H41.0094L42.2803 8.43286L41.7625 11.916H42.798L43.5982 7.2561H41.9978L41.0094 10.1274L40.9623 7.2561H39.5502L38.75 11.916H39.6914Z" fill="white"/>
<path d="M54.7545 11.9155C55.0369 10.3151 55.084 8.99711 55.79 9.23247C55.8842 8.62055 56.0254 8.33813 56.1195 8.10278H55.9312C55.5076 8.10278 55.131 8.66762 55.131 8.66762L55.2252 8.14985H54.2838L53.6719 11.9155H54.7545Z" fill="white"/>
<path d="M60.781 8.00903C60.1221 8.00903 59.6043 8.19731 59.6043 8.19731L59.4631 9.04458C59.4631 9.04458 59.8867 8.8563 60.5457 8.8563C60.8752 8.8563 61.1576 8.90336 61.1576 9.18579C61.1576 9.37407 61.1105 9.42114 61.1105 9.42114H60.6869C59.8396 9.42114 58.9453 9.75063 58.9453 10.8803C58.9453 11.7746 59.5102 11.9629 59.8867 11.9629C60.5457 11.9629 60.8752 11.5393 60.9223 11.5393L60.8752 11.9159H61.7695L62.1461 9.23286C62.1461 8.0561 61.1105 8.00903 60.781 8.00903ZM61.0164 10.1743C61.0164 10.3155 60.9223 11.1157 60.3574 11.1157C60.075 11.1157 59.9809 10.8803 59.9809 10.7391C59.9809 10.5037 60.1221 10.1743 60.8752 10.1743C60.9693 10.1743 60.9693 10.1743 61.0164 10.1743Z" fill="white"/>
<path d="M62.899 11.9155C63.1814 10.3151 63.2285 8.99711 63.9346 9.23247C64.0287 8.62055 64.1699 8.33813 64.2641 8.10278H64.0758C63.6521 8.10278 63.2756 8.66762 63.2756 8.66762L63.3697 8.14985H62.4283L61.8164 11.9155H62.899Z" fill="white"/>
<path d="M94.3248 16.5041C96.2218 14.7569 97.4199 12.2609 97.4199 9.51529C97.4199 6.71974 96.2218 4.22372 94.3248 2.52642C92.6275 1.02881 90.431 0.0803223 87.9849 0.0803223C82.7432 0.0803223 78.5 4.32356 78.5 9.51529C78.5 14.7569 82.7432 19.0002 87.9849 19.0002C90.431 18.9502 92.6275 18.0018 94.3248 16.5041Z" fill="#3362AB"/>
<path d="M94.3242 16.504C96.2212 14.7568 97.4193 12.2607 97.4193 9.51511C97.4193 6.71956 96.2212 4.22354 94.3242 2.52625" fill="#3362AB"/>
<path d="M94.3242 16.504C96.2212 14.7568 97.4193 12.2607 97.4193 9.51511C97.4193 6.71956 96.2212 4.22354 94.3242 2.52625" stroke="#3362AB" stroke-width="0.189509"/>
<path d="M100.668 0.0307617C98.2219 0.0307617 95.9755 0.979247 94.3281 2.47686C93.9787 2.77638 93.6792 3.12583 93.3796 3.47527H95.2766C95.5262 3.77479 95.7758 4.12423 95.9755 4.47368H92.6308C92.4311 4.7732 92.2315 5.12264 92.0817 5.47209H96.5246C96.6744 5.82153 96.8241 6.12105 96.924 6.4705H91.6823C91.5825 6.81994 91.4827 7.11946 91.3828 7.4689H97.1736C97.3233 8.11787 97.3733 8.76684 97.3733 9.46572C97.3733 10.5141 97.2235 11.5125 96.8741 12.4609H91.6324C91.7323 12.8104 91.882 13.1598 92.0318 13.4594H96.4747C96.3249 13.8088 96.1253 14.1582 95.9256 14.4578H92.5809C92.7806 14.8072 93.0302 15.1567 93.2798 15.4562H95.1768C94.8772 15.8056 94.5777 16.1551 94.2283 16.4546C95.9256 17.9522 98.1221 18.9007 100.568 18.9007C105.81 18.9007 110.003 14.6575 110.003 9.41581C110.153 4.274 105.91 0.0307617 100.668 0.0307617Z" fill="#C9191B"/>
<path d="M86.7872 11.8123H85.5891L86.288 8.11815L84.6905 11.8123H83.6422L83.4425 8.16807L82.7436 11.8123H81.6953L82.5939 7.0199H84.4409L84.5408 10.0151L85.8387 7.0199H87.7357L86.7872 11.8123Z" fill="white"/>
<path d="M99.9651 11.8113C99.6656 11.9111 99.3661 11.9611 99.1165 11.9611C98.5174 11.9611 98.168 11.6615 98.168 11.1124C98.168 11.0126 98.168 10.8628 98.2179 10.763L98.2678 10.3636L98.3177 10.0641L98.8669 7.06885H100.015L99.8653 7.96742H100.464L100.315 8.91591H99.7155L99.416 10.5633C99.416 10.6132 99.416 10.713 99.416 10.713C99.416 10.9127 99.5657 11.0126 99.8153 11.0126C99.9651 11.0126 100.065 11.0126 100.115 10.9626L99.9651 11.8113Z" fill="white"/>
<path d="M103.362 7.96788C103.263 7.91796 103.263 7.91797 103.213 7.91797C103.163 7.91797 103.113 7.91797 103.113 7.91797C103.063 7.91797 103.013 7.91797 102.963 7.91797C102.564 7.91797 102.314 8.06772 101.915 8.56693L102.015 7.96788H101.066L100.367 11.8617H101.565C101.965 9.4655 102.164 9.06613 102.713 9.06613C102.763 9.06613 102.813 9.06613 102.863 9.06613L103.013 9.11606L103.362 7.96788Z" fill="white"/>
<path d="M95.2735 9.16573C95.2735 9.66494 95.573 10.0144 96.1721 10.264C96.6713 10.4637 96.7212 10.5136 96.7212 10.7133C96.7212 10.9629 96.5215 11.0627 96.0223 11.0627C95.6729 11.0627 95.3234 11.0128 94.974 10.9129L94.8242 11.8115H94.8741L95.0738 11.8614C95.1237 11.8614 95.2735 11.9114 95.3733 11.9114C95.6729 11.9114 95.8725 11.9613 96.0223 11.9613C97.2703 11.9613 97.8694 11.5619 97.8694 10.6633C97.8694 10.1142 97.6198 9.81469 97.0207 9.56509C96.5215 9.36541 96.4716 9.31549 96.4716 9.11581C96.4716 8.91613 96.6713 8.81628 97.0706 8.81628C97.3202 8.81628 97.6198 8.81629 97.9193 8.86621L98.069 7.96764C97.7695 7.91772 97.3202 7.8678 97.0207 7.8678C95.7228 7.8678 95.2735 8.46685 95.2735 9.16573Z" fill="white"/>
<path d="M89.779 10.1142C89.6292 10.1142 89.5793 10.1142 89.5294 10.1142C88.8804 10.1142 88.531 10.3139 88.531 10.7133C88.531 10.9629 88.6807 11.1126 88.9303 11.1126C89.3796 11.0627 89.7291 10.6633 89.779 10.1142ZM90.6276 11.8115H89.6292L89.6792 11.4122C89.3796 11.7117 88.9803 11.8614 88.4311 11.8614C87.7822 11.8614 87.3828 11.4121 87.3828 10.8131C87.3828 9.86461 88.1316 9.31549 89.4296 9.31549C89.5793 9.31549 89.7291 9.31549 89.9288 9.36541C89.9787 9.21565 89.9787 9.16573 89.9787 9.11581C89.9787 8.86621 89.779 8.76637 89.2299 8.76637C88.8804 8.76637 88.531 8.81629 88.2814 8.86621L88.1316 8.91613L88.0318 8.96605L88.1815 8.06748C88.7806 7.91772 89.13 7.8678 89.5793 7.8678C90.5777 7.8678 91.1268 8.26716 91.1268 9.01597C91.1268 9.21565 91.1268 9.36541 91.027 9.76478L90.7774 11.1625L90.7275 11.4122L90.6776 11.6118V11.7616L90.6276 11.8115Z" fill="white"/>
<path d="M93.8771 9.41631C93.8771 9.31647 93.8771 9.26654 93.8771 9.21662C93.8771 8.9171 93.6774 8.71742 93.328 8.71742C92.9286 8.71742 92.679 8.96702 92.5792 9.41631H93.8771ZM94.4762 11.7626C94.0768 11.8624 93.6774 11.9123 93.2781 11.9123C91.9801 11.9123 91.2812 11.3133 91.2812 10.1651C91.2812 8.81726 92.1299 7.81885 93.328 7.81885C94.2765 7.81885 94.9255 8.36797 94.9255 9.21662C94.9255 9.51614 94.8755 9.76575 94.7757 10.1651H92.4294C92.4294 10.215 92.4294 10.265 92.4294 10.265C92.4294 10.7142 92.7789 10.9638 93.4777 10.9638C93.8771 10.9638 94.2765 10.864 94.7258 10.7142L94.4762 11.7626Z" fill="white"/>
<path d="M105.806 9.56509C105.806 9.16573 105.656 8.76637 105.157 8.76637C104.558 8.76637 104.208 9.46525 104.208 10.1142C104.208 10.6633 104.458 11.0128 104.907 11.0128C105.157 11.0128 105.706 10.6633 105.806 10.0643C105.806 9.91453 105.806 9.71485 105.806 9.56509ZM107.054 10.0643C106.854 11.3622 105.955 11.9613 104.757 11.9613C103.409 11.9613 102.91 11.1625 102.91 10.1641C102.91 8.76637 103.809 7.8678 105.206 7.8678C106.454 7.8678 107.054 8.6166 107.054 9.61501C107.103 9.81469 107.103 9.81469 107.054 10.0643Z" fill="white"/>
<path d="M148.385 4.92615H142.289C142.644 6.9383 144.597 8.8321 146.728 8.8321H151.58C151.64 8.65456 151.64 8.35865 151.64 8.18111C151.64 6.40567 150.16 4.92615 148.385 4.92615Z" fill="url(#paint0_linear_1237_2712)"/>
<path d="M142.82 9.19275V14.1048H145.779V11.5008H148.383C149.804 11.5008 151.046 10.4947 151.461 9.19275H142.82Z" fill="#4FAD50"/>
<path d="M132.426 4.92615V14.04H135.03C135.03 14.04 135.681 14.04 136.036 13.389C137.811 9.89736 138.344 8.8321 138.344 8.8321H138.699V14.04H141.658V4.92615H139.054C139.054 4.92615 138.403 4.98533 138.048 5.57714C136.568 8.59538 135.74 10.1341 135.74 10.1341H135.385V4.92615H132.426Z" fill="#4FAD50"/>
<path d="M120.004 14.1028V4.98889H122.963C122.963 4.98889 123.792 4.98889 124.265 6.29087C125.449 9.72338 125.567 10.1968 125.567 10.1968C125.567 10.1968 125.804 9.36829 126.869 6.29087C127.342 4.98889 128.171 4.98889 128.171 4.98889H131.13V14.1028H128.171V9.19075H127.816L126.159 14.1028H124.857L123.2 9.19075H122.845V14.1028H120.004Z" fill="#4FAD50"/>
<defs>
<linearGradient id="paint0_linear_1237_2712" x1="142.279" y1="6.90712" x2="151.619" y2="6.90712" gradientUnits="userSpaceOnUse">
<stop stop-color="#27B1E6"/>
<stop offset="1" stop-color="#148ACA"/>
</linearGradient>
</defs>
</svg>
