<svg width="28" height="28" viewBox="0 0 28 28" fill="none" xmlns="http://www.w3.org/2000/svg">
<path d="M25.5391 6.5625H22.2009C22.717 5.8765 23.0234 5.0242 23.0234 4.10156C23.0234 1.83996 21.1835 0 18.9219 0C17.5596 0 16.555 0.488086 15.7604 1.53601C15.0957 2.41276 14.6097 3.63688 14 5.18355C13.3903 3.63683 12.9043 2.41276 12.2396 1.53601C11.445 0.488086 10.4404 0 9.07812 0C6.81652 0 4.97656 1.83996 4.97656 4.10156C4.97656 5.0242 5.28298 5.8765 5.79912 6.5625H2.46094C1.10398 6.5625 0 7.66648 0 9.02344V10.6641C0 11.7335 0.685836 12.6453 1.64062 12.9839V25.5391C1.64062 26.896 2.7446 28 4.10156 28H23.8984C25.2554 28 26.3594 26.896 26.3594 25.5391V12.9839C27.3142 12.6453 28 11.7335 28 10.6641V9.02344C28 7.66648 26.896 6.5625 25.5391 6.5625ZM15.5058 5.83734C16.7624 2.64917 17.2402 1.64062 18.9219 1.64062C20.2788 1.64062 21.3828 2.7446 21.3828 4.10156C21.3828 5.45852 20.2788 6.5625 18.9219 6.5625H15.2188C15.3193 6.31012 15.4152 6.06714 15.5058 5.83734ZM9.07812 1.64062C10.7598 1.64062 11.2376 2.64917 12.4942 5.83734C12.5848 6.06714 12.6807 6.31012 12.7812 6.5625H9.07812C7.72116 6.5625 6.61719 5.45852 6.61719 4.10156C6.61719 2.7446 7.72116 1.64062 9.07812 1.64062ZM10.7188 26.3594H4.10156C3.64924 26.3594 3.28125 25.9914 3.28125 25.5391V13.125H10.7188V26.3594ZM10.7188 11.4844H2.46094C2.00862 11.4844 1.64062 11.1164 1.64062 10.6641V9.02344C1.64062 8.57112 2.00862 8.20312 2.46094 8.20312H10.7188V11.4844ZM15.6406 26.3594H12.3594V8.20312C12.5313 8.20312 14.6978 8.20312 15.6406 8.20312V26.3594ZM24.7188 25.5391C24.7188 25.9914 24.3508 26.3594 23.8984 26.3594H17.2812V13.125H24.7188V25.5391ZM26.3594 10.6641C26.3594 11.1164 25.9914 11.4844 25.5391 11.4844H17.2812V8.20312H25.5391C25.9914 8.20312 26.3594 8.57112 26.3594 9.02344V10.6641Z" fill="#FA8151"/>
</svg>
