<svg width="26" height="26" viewBox="0 0 26 26" fill="none" xmlns="http://www.w3.org/2000/svg">
<path fill-rule="evenodd" clip-rule="evenodd" d="M13 0C5.8203 0 0 5.8203 0 13C0 20.1797 5.8203 26 13 26C20.1797 26 26 20.1797 26 13C26 5.8203 20.1797 0 13 0ZM18.4173 8.53089C19.0139 8.69462 19.4838 9.17704 19.6433 9.78966C19.9331 10.9 19.9331 13.2167 19.9331 13.2167C19.9331 13.2167 19.9331 15.5333 19.6433 16.6437C19.4838 17.2563 19.0139 17.7387 18.4173 17.9025C17.336 18.2 12.9997 18.2 12.9997 18.2C12.9997 18.2 8.66349 18.2 7.58213 17.9025C6.98547 17.7387 6.51558 17.2563 6.35611 16.6437C6.06641 15.5333 6.06641 13.2167 6.06641 13.2167C6.06641 13.2167 6.06641 10.9 6.35611 9.78966C6.51558 9.17704 6.98547 8.69462 7.58213 8.53089C8.66349 8.23334 12.9997 8.23334 12.9997 8.23334C12.9997 8.23334 17.336 8.23334 18.4173 8.53089Z" fill="#828A96"/>
<path fill-rule="evenodd" clip-rule="evenodd" d="M11.7002 15.6V11.2667L15.1669 13.4334L11.7002 15.6Z" fill="#828A96"/>
</svg>
