<svg width="92" height="92" viewBox="0 0 92 92" fill="none" xmlns="http://www.w3.org/2000/svg">
<path d="M89.5 11.5C87.0328 11.5011 84.5924 12.0114 82.3314 12.9989C80.0704 13.9864 78.0376 15.4299 76.36 17.239L72.5605 13.4395C72.2792 13.1583 71.8977 13.0003 71.5 13.0003C71.1023 13.0003 70.7208 13.1583 70.4395 13.4395L65.2615 18.616C60.7908 15.7842 55.7506 13.9731 50.5 13.312V10H53.5C53.8978 10 54.2794 9.84196 54.5607 9.56066C54.842 9.27936 55 8.89782 55 8.5V2.5C55 2.10218 54.842 1.72064 54.5607 1.43934C54.2794 1.15804 53.8978 1 53.5 1H38.5C38.1022 1 37.7206 1.15804 37.4393 1.43934C37.158 1.72064 37 2.10218 37 2.5V8.5C37 8.89782 37.158 9.27936 37.4393 9.56066C37.7206 9.84196 38.1022 10 38.5 10H41.5V13.324C37.7263 13.7903 34.0526 14.8626 30.6205 16.4995L18.0505 3.9295C16.1747 2.06113 13.6375 1.0084 10.99 1C8.34146 1.00318 5.80231 2.05671 3.92951 3.92951C2.05671 5.80231 1.00318 8.34146 1 10.99C1.00953 13.6373 2.0621 16.1741 3.9295 18.0505L15.6145 29.734C13.0467 33.771 11.3146 38.2819 10.5205 43H10C8.06745 43.0021 6.1869 43.6263 4.63658 44.7801C3.08626 45.9339 1.94851 47.5561 1.39165 49.4067C0.834793 51.2573 0.888403 53.238 1.54455 55.0557C2.2007 56.8735 3.42454 58.4317 5.035 59.5C3.79479 60.3191 2.77705 61.4329 2.07291 62.7418C1.36877 64.0507 1.0002 65.5137 1.0002 67C1.0002 68.4863 1.36877 69.9493 2.07291 71.2582C2.77705 72.5671 3.79479 73.6809 5.035 74.5C3.42454 75.5683 2.2007 77.1265 1.54455 78.9443C0.888403 80.762 0.834793 82.7427 1.39165 84.5933C1.94851 86.4439 3.08626 88.0661 4.63658 89.2199C6.1869 90.3737 8.06745 90.9979 10 91H22C22.354 90.998 22.7076 90.9755 23.059 90.9325C23.2018 90.977 23.3504 90.9998 23.5 91H89.5C89.8978 91 90.2794 90.842 90.5607 90.5607C90.842 90.2794 91 89.8978 91 89.5V13C91 12.6022 90.842 12.2206 90.5607 11.9393C90.2794 11.658 89.8978 11.5 89.5 11.5ZM64.4125 57.8995L61.045 55.9495L59.545 58.5445L62.4115 60.1945C60.7536 62.2468 59.2713 64.435 57.9805 66.736L55.5505 62.536L52.9525 64.036L55.9525 69.232L56.9845 68.632C56.308 69.982 55.705 71.3575 55.162 72.7615C52.2436 73.9089 49.1358 74.4986 46 74.5C40.4699 74.4878 35.0931 72.6813 30.6775 69.352C31.089 67.8654 31.1071 66.2973 30.73 64.8016C30.3529 63.3059 29.5936 61.9339 28.5265 60.82L32.461 58.549L30.961 55.951L29.659 56.701C30.5004 55.3392 30.9626 53.7772 30.9976 52.1768C31.0326 50.5764 30.6392 48.9958 29.8581 47.5985C29.077 46.2012 27.9366 45.0381 26.555 44.2296C25.1734 43.4211 23.6008 42.9966 22 43H21.25C22.4677 37.9574 25.1954 33.4066 29.0686 29.9557C32.9418 26.5048 37.7759 24.3182 42.925 23.6881C48.0742 23.0581 53.2929 24.0146 57.8839 26.4297C62.4749 28.8449 66.2194 32.6038 68.617 37.204C68.635 37.246 68.653 37.2865 68.674 37.3285C69.54 39.0127 70.2142 40.7889 70.684 42.6235L70.0525 52.7215C68.032 54.2879 66.1455 56.0199 64.4125 57.8995ZM30.985 81.7C34.96 83.5457 39.243 84.6377 43.6165 84.9205C44.41 84.967 45.2065 84.9985 46 84.9985C48.1079 84.9992 50.2117 84.8125 52.2865 84.4405C52.156 85.6195 52.0825 86.8075 52.0435 87.9985H28.69C30.1759 86.3539 30.999 84.2165 31 82C31 81.8995 30.988 81.802 30.985 81.7ZM52.75 81.2695C49.8014 81.8892 46.7829 82.1102 43.7755 81.9265C38.9195 81.6115 34.1971 80.2046 29.9605 77.8105C29.2522 76.4737 28.221 75.3351 26.9605 74.4985C27.9102 73.8659 28.7325 73.0604 29.3845 72.124C34.2255 75.6075 40.0359 77.4875 46 77.5C48.6785 77.4998 51.3432 77.1179 53.914 76.366C53.4378 77.9788 53.0493 79.6162 52.75 81.271V81.2695ZM71.5 16.621L74.482 19.6C73.7363 20.7348 73.1219 21.9506 72.6505 23.224L71.8705 24.0055C70.6025 22.6802 69.2312 21.4579 67.7695 20.35L71.5 16.621ZM40 4H52V7H40V4ZM47.5 10V13.0675C46.498 13.024 45.502 13.024 44.5 13.0675V10H47.5ZM4 10.99C4.00278 9.13699 4.74011 7.36067 6.05039 6.05039C7.36067 4.74011 9.13699 4.00278 10.99 4C12.8422 4.00659 14.6171 4.74339 15.9295 6.0505L27.8215 17.95C27.454 18.1645 27.097 18.4 26.7385 18.6235L21.5605 13.447C21.2792 13.1658 20.8977 13.0078 20.5 13.0078C20.1023 13.0078 19.7208 13.1658 19.4395 13.447L13.4395 19.447C13.1583 19.7283 13.0003 20.1098 13.0003 20.5075C13.0003 20.9052 13.1583 21.2867 13.4395 21.568L18.136 26.266C17.869 26.5885 17.6065 26.9095 17.3545 27.2395L6.0505 15.9295C4.74476 14.6162 4.0082 12.8419 4 10.99ZM20.1295 24.0085L16.621 20.5L20.5 16.621L24.2305 20.35C22.7682 21.4583 21.3968 22.6817 20.1295 24.0085ZM18.7705 30.373C19.5404 29.2437 20.3863 28.1682 21.3025 27.154C24.0217 24.0535 27.3068 21.4994 30.982 19.6285C34.7226 17.6934 38.8049 16.5067 43 16.135H43.03C43.0865 16.138 43.143 16.138 43.1995 16.135C45.0625 15.9625 46.9375 15.9625 48.8005 16.135C48.8455 16.135 48.8905 16.135 48.934 16.135C54.5611 16.6363 59.9647 18.5765 64.6255 21.769C66.8937 23.3123 68.9524 25.143 70.75 27.2155C71.023 27.496 71.293 27.8155 71.566 28.159C71.5345 28.588 71.4985 29.0155 71.497 29.452L71.116 35.5555C68.3676 30.4112 64.1054 26.2354 58.9059 23.5929C53.7065 20.9504 47.8208 19.9689 42.0452 20.7811C36.2696 21.5932 30.8829 24.1599 26.6139 28.1339C22.3448 32.1079 19.3996 37.2973 18.1765 43H13.5565C14.3888 38.4716 16.1653 34.1693 18.7705 30.373ZM4 52C4 50.4087 4.63214 48.8826 5.75736 47.7574C6.88258 46.6321 8.4087 46 10 46H22C23.5913 46 25.1174 46.6321 26.2426 47.7574C27.3679 48.8826 28 50.4087 28 52C28 53.5913 27.3679 55.1174 26.2426 56.2426C25.1174 57.3679 23.5913 58 22 58H10C8.4087 58 6.88258 57.3679 5.75736 56.2426C4.63214 55.1174 4 53.5913 4 52ZM4 67C4 65.4087 4.63214 63.8826 5.75736 62.7574C6.88258 61.6321 8.4087 61 10 61H22C23.5913 61 25.1174 61.6321 26.2426 62.7574C27.3679 63.8826 28 65.4087 28 67C28 68.5913 27.3679 70.1174 26.2426 71.2426C25.1174 72.3679 23.5913 73 22 73H10C8.4087 73 6.88258 72.3679 5.75736 71.2426C4.63214 70.1174 4 68.5913 4 67ZM10 88C8.4087 88 6.88258 87.3679 5.75736 86.2426C4.63214 85.1174 4 83.5913 4 82C4 80.4087 4.63214 78.8826 5.75736 77.7574C6.88258 76.6321 8.4087 76 10 76H22C23.5913 76 25.1174 76.6321 26.2426 77.7574C27.3679 78.8826 28 80.4087 28 82C28 83.5913 27.3679 85.1174 26.2426 86.2426C25.1174 87.3679 23.5913 88 22 88H10ZM88 88H55.027C55.2669 81.5074 56.9506 75.1498 59.9558 69.3896C62.961 63.6293 67.2121 58.6112 72.4 54.7C72.5743 54.57 72.7182 54.4036 72.8218 54.2125C72.9254 54.0214 72.9862 53.81 73 53.593L74.5 29.593C74.5 29.563 74.5 29.5315 74.5 29.5C74.5043 25.7827 75.887 22.199 78.3807 19.4421C80.8743 16.6853 84.3017 14.9511 88 14.575V88Z" fill="#828A96" stroke="white"/>
<path d="M59.9395 32.9395L49.0285 43.8505C48.1141 43.2991 47.0677 43.0052 46 43C44.4087 43 42.8825 43.6322 41.7573 44.7574C40.6321 45.8826 40 47.4087 40 49C40.0052 50.0677 40.2991 51.1142 40.8505 52.0285L37.4395 55.4395L39.5605 57.5605L42.9715 54.1495C43.8858 54.7009 44.9322 54.9948 46 55C47.5913 55 49.1174 54.3679 50.2426 53.2427C51.3678 52.1174 52 50.5913 52 49C51.9947 47.9323 51.7009 46.8859 51.1495 45.9715L62.0605 35.0605L59.9395 32.9395ZM46 52C45.4066 52 44.8266 51.8241 44.3332 51.4944C43.8399 51.1648 43.4554 50.6962 43.2283 50.1481C43.0013 49.5999 42.9418 48.9967 43.0576 48.4147C43.1734 47.8328 43.4591 47.2982 43.8786 46.8787C44.2982 46.4591 44.8327 46.1734 45.4147 46.0577C45.9966 45.9419 46.5998 46.0013 47.148 46.2284C47.6962 46.4554 48.1647 46.84 48.4944 47.3333C48.824 47.8266 49 48.4067 49 49C49 49.7957 48.6839 50.5587 48.1213 51.1213C47.5587 51.6839 46.7956 52 46 52Z" fill="#828A96" stroke="white"/>
<path d="M47.5 26.5H44.5V32.5H47.5V26.5Z" fill="#828A96" stroke="white"/>
<path d="M47.5 65.5H44.5V71.5H47.5V65.5Z" fill="#828A96" stroke="white"/>
<path d="M36.0487 28.7649L33.4507 30.265L36.4509 35.4611L39.0489 33.961L36.0487 28.7649Z" fill="#828A96" stroke="white"/>
<path d="M27.2647 36.451L25.7646 39.049L30.9607 42.0492L32.4608 39.4512L27.2647 36.451Z" fill="#828A96" stroke="white"/>
<path d="M68.5 47.5H62.5V50.5H68.5V47.5Z" fill="#828A96" stroke="white"/>
<path d="M64.7346 36.4508L59.5386 39.451L61.0387 42.049L66.2347 39.0488L64.7346 36.4508Z" fill="#828A96" stroke="white"/>
<path d="M36.4502 62.5401L33.4507 67.7365L36.0489 69.2363L39.0484 64.0399L36.4502 62.5401Z" fill="#828A96" stroke="white"/>
<path d="M55.9512 28.7643L52.9517 33.9608L55.5499 35.4605L58.5494 30.2641L55.9512 28.7643Z" fill="#828A96" stroke="white"/>
</svg>
