<svg width="26" height="26" viewBox="0 0 26 26" fill="none" xmlns="http://www.w3.org/2000/svg">
<path fill-rule="evenodd" clip-rule="evenodd" d="M13 0C5.8203 0 0 5.8203 0 13C0 20.1797 5.8203 26 13 26C20.1797 26 26 20.1797 26 13C26 5.8203 20.1797 0 13 0ZM14.0587 17.1039C13.9305 17.239 13.6803 17.2663 13.6803 17.2663H12.8515C12.8515 17.2663 11.023 17.3742 9.41224 15.7285C7.65565 13.933 6.10456 10.3706 6.10456 10.3706C6.10456 10.3706 6.01504 10.1369 6.11202 10.0244C6.22122 9.89727 6.51895 9.88929 6.51895 9.88929L8.50003 9.87664C8.50003 9.87664 8.68654 9.90659 8.82015 10.0031C8.9307 10.083 8.99242 10.2315 8.99242 10.2315C8.99242 10.2315 9.31254 11.0264 9.73643 11.7454C10.5645 13.1494 10.9498 13.4563 11.2305 13.3059C11.6402 13.0868 11.5174 11.3213 11.5174 11.3213C11.5174 11.3213 11.5249 10.6808 11.3113 10.3952C11.1458 10.1742 10.8338 10.1096 10.6961 10.0917C10.5842 10.077 10.7673 9.82271 11.0047 9.70887C11.3614 9.53778 11.9908 9.52779 12.7348 9.53511C13.3147 9.5411 13.4816 9.57639 13.7081 9.63031C14.2338 9.75484 14.2174 10.1539 14.182 11.0153C14.1714 11.2729 14.1591 11.5718 14.1591 11.9171C14.1591 11.9947 14.1568 12.0774 14.1544 12.1625C14.1421 12.6038 14.128 13.1091 14.4243 13.2972C14.5762 13.3931 14.9472 13.3112 15.8757 11.764C16.3158 11.0304 16.6454 10.1682 16.6454 10.1682C16.6454 10.1682 16.718 10.0144 16.8299 9.94854C16.9445 9.8813 17.0992 9.90193 17.0992 9.90193L19.184 9.88929C19.184 9.88929 19.8107 9.81539 19.9117 10.0937C20.0182 10.3846 19.6778 11.065 18.8259 12.1794C18.0179 13.2369 17.6246 13.6262 17.6607 13.9705C17.6871 14.2221 17.9427 14.4497 18.4332 14.8963C19.4572 15.8295 19.7317 16.3205 19.7976 16.4384C19.8031 16.4482 19.8071 16.4554 19.81 16.4601C20.2692 17.2077 19.3007 17.2663 19.3007 17.2663L17.4485 17.2916C17.4485 17.2916 17.051 17.3688 16.5274 17.016C16.2532 16.8313 15.9852 16.5297 15.7299 16.2424C15.34 15.8037 14.9799 15.3984 14.6725 15.4941C14.1564 15.6552 14.172 16.7464 14.172 16.7464C14.172 16.7464 14.176 16.9801 14.0587 17.1039Z" fill="#E6E6E6"/>
</svg>
