<svg width="60" height="37" viewBox="0 0 60 37" fill="none" xmlns="http://www.w3.org/2000/svg">
<path d="M58.7638 5.78957C58.0721 3.52575 56.0456 1.7413 53.4757 1.13171C48.7805 0 29.9994 0 29.9994 0C29.9994 0 11.2188 0 6.52356 1.08857C4.00313 1.69776 1.92718 3.52615 1.2355 5.78957C0 9.92451 0 18.5 0 18.5C0 18.5 0 27.1186 1.2355 31.2104C1.92763 33.4739 3.95369 35.2587 6.52402 35.8683C11.2683 37 29.9999 37 29.9999 37C29.9999 37 48.7805 37 53.4757 35.9114C56.0461 35.3022 58.0721 33.5174 58.7642 31.254C59.9997 27.1186 59.9997 18.5435 59.9997 18.5435C59.9997 18.5435 60.0492 9.92451 58.7638 5.78957Z" fill="#FF0000"/>
<path d="M24 26L40 18L24 10V26Z" fill="white"/>
</svg>
