<svg width="92" height="91" viewBox="0 0 92 91" fill="none" xmlns="http://www.w3.org/2000/svg">
<path d="M89.6816 78.9077H87.5723V40.5222C87.5723 36.5916 84.3799 33.394 80.4558 33.394H71.0488V28.146L79.7797 16.0418C80.0425 16.4408 80.2229 16.8927 80.3009 17.3787C80.4459 18.2805 80.2316 19.185 79.6974 19.9253L74.0589 27.7426C73.0745 29.1077 75.2069 30.6611 76.1961 29.2894L81.8346 21.4721C82.7813 20.1599 83.161 18.5569 82.9039 16.9586C82.7123 15.767 82.1833 14.6845 81.3839 13.8177L84.0373 10.1393C84.9377 8.89097 85.2989 7.36639 85.0544 5.84586C84.8097 4.32551 83.9886 2.99162 82.7425 2.0898C80.1703 0.228581 76.5648 0.809958 74.7063 3.38654L63.0191 19.5892C62.5621 19.5216 62.0993 19.4846 61.6352 19.4846H29.8374C24.6468 19.4846 20.4238 23.7143 20.4238 28.9136V33.394H11.5442C7.62027 33.394 4.42773 36.5918 4.42773 40.5222V63.9859C4.42773 65.6894 7.06445 65.6894 7.06445 63.9859V40.5222C7.06445 38.0479 9.07416 36.0351 11.5442 36.0351H20.4238V39.1747H11.0195C10.2913 39.1747 9.70117 39.7658 9.70117 40.4952V78.9077H7.06445V71.0286C7.06445 69.3252 4.42773 69.3252 4.42773 71.0286V78.9077H2.31836C1.5901 78.9077 1 79.4988 1 80.2282V83.461C1 87.0667 3.92852 90 7.52834 90H73.0703C74.771 90 74.771 87.359 73.0703 87.359H7.52834C5.38258 87.359 3.63672 85.6103 3.63672 83.461V81.5487H38.9688V81.5672C38.9688 83.9355 40.8923 85.8624 43.2569 85.8624H48.7432C51.1077 85.8624 53.0314 83.9357 53.0314 81.5672V81.5487H88.3635V83.461C88.3635 85.6103 86.6176 87.359 84.4718 87.359H80.4531C78.7524 87.359 78.7524 90 80.4531 90H84.4717C88.0715 90 91 87.0667 91 83.461V80.2282C91 79.4988 90.4099 78.9077 89.6816 78.9077ZM54.6857 37.6838L57.8164 39.9494L54.6061 41.0972L54.6857 37.6838ZM60.3234 38.5055L55.2668 34.8462L72.7168 10.6545L77.7733 14.3137L60.3234 38.5055ZM76.8436 4.9333C77.8507 3.5369 79.8047 3.22157 81.1986 4.23061C81.8738 4.7192 82.3187 5.44214 82.4512 6.26614C82.5838 7.08996 82.3881 7.91608 81.9002 8.59253L79.3176 12.1729L74.2611 8.51365L76.8436 4.9333ZM50.3945 81.5672C50.3945 82.4792 49.6536 83.2214 48.7431 83.2214H43.2568C42.3462 83.2214 41.6053 82.4792 41.6053 81.5672V81.5487H50.3944V81.5672H50.3945ZM12.3379 78.9077V41.8157H20.4238V47.7343C20.4238 52.4853 23.9503 56.4269 28.5191 57.071V67.1109C28.5191 67.645 28.8402 68.1267 29.3329 68.3309C29.4961 68.3987 29.6673 68.4315 29.8371 68.4315C30.1802 68.4315 30.5174 68.2973 30.7698 68.0448L41.6336 57.1631H54.7891C56.4897 57.1631 56.4897 54.5221 54.7891 54.5221H41.0874C40.7378 54.5221 40.4026 54.6612 40.1551 54.9087L31.1558 63.9229V55.8424C31.1558 55.1129 30.5657 54.5219 29.8374 54.5219C26.1007 54.5219 23.0605 51.4768 23.0605 47.7339V28.9135C23.0605 25.1706 26.1007 22.1255 29.8374 22.1255H61.1896L52.3577 34.3698C52.203 34.5843 52.1174 34.8487 52.1082 35.1125L51.9252 42.9558C51.9043 43.8569 52.834 44.5351 53.6866 44.2302L61.0632 41.5928C61.3098 41.5064 61.5359 41.3344 61.6887 41.1226L68.4123 31.8013V47.7343C68.4123 51.4771 65.3721 54.5222 61.6354 54.5222C59.9347 54.5222 59.9347 57.1633 61.6354 57.1633C66.826 57.1633 71.049 52.9336 71.049 47.7343V41.8157H79.6623V78.9077H12.3379ZM82.2988 78.9077V40.4952C82.2988 39.7658 81.7087 39.1747 80.9805 39.1747H71.0488V36.0351H80.4558C82.926 36.0351 84.9355 38.048 84.9355 40.5222V78.9077H82.2988Z" fill="#828A96" stroke="white" stroke-width="0.8"/>
<path d="M46.5273 41.6661H31.9375C31.2092 41.6661 30.6191 42.2571 30.6191 42.9866C30.6191 43.716 31.2092 44.3071 31.9375 44.3071H46.5273C47.2556 44.3071 47.8457 43.716 47.8457 42.9866C47.8457 42.2571 47.2556 41.6661 46.5273 41.6661Z" fill="#828A96" stroke="white" stroke-width="0.8"/>
<path d="M46.5273 32.3392H31.9375C31.2092 32.3392 30.6191 32.9303 30.6191 33.6597C30.6191 34.3892 31.2092 34.9803 31.9375 34.9803H46.5273C47.2556 34.9803 47.8457 34.3892 47.8457 33.6597C47.8457 32.9303 47.2556 32.3392 46.5273 32.3392Z" fill="#828A96" stroke="white" stroke-width="0.8"/>
</svg>
