<svg width="26" height="26" viewBox="0 0 26 26" fill="none" xmlns="http://www.w3.org/2000/svg">
<path fill-rule="evenodd" clip-rule="evenodd" d="M13 0C5.8203 0 0 5.8203 0 13C0 20.1797 5.8203 26 13 26C20.1797 26 26 20.1797 26 13C26 5.8203 20.1797 0 13 0ZM10.142 6.10854C10.8816 6.07488 11.1179 6.06665 13.0009 6.06665H12.9987C14.8823 6.06665 15.1177 6.07488 15.8573 6.10854C16.5954 6.14234 17.0995 6.2592 17.5415 6.43065C17.998 6.6076 18.3837 6.84449 18.7693 7.23016C19.155 7.61554 19.3919 8.00237 19.5696 8.45839C19.74 8.89924 19.857 9.40306 19.8917 10.1412C19.9249 10.8807 19.9336 11.1171 19.9336 13.0001C19.9336 14.8831 19.9249 15.1188 19.8917 15.8584C19.857 16.5962 19.74 17.1002 19.5696 17.5411C19.3919 17.997 19.155 18.3838 18.7693 18.7692C18.3841 19.1549 17.9978 19.3924 17.542 19.5695C17.1008 19.7409 16.5964 19.8578 15.8583 19.8916C15.1187 19.9252 14.8832 19.9335 13 19.9335C11.1172 19.9335 10.881 19.9252 10.1414 19.8916C9.40345 19.8578 8.89948 19.7409 8.45834 19.5695C8.00261 19.3924 7.61579 19.1549 7.23055 18.7692C6.84503 18.3838 6.60813 17.997 6.4309 17.541C6.25959 17.1002 6.14273 16.5963 6.10878 15.8582C6.07527 15.1186 6.06689 14.8831 6.06689 13.0001C6.06689 11.1171 6.07556 10.8806 6.10864 10.141C6.14186 9.40321 6.25886 8.89924 6.43075 8.45824C6.60842 8.00237 6.84531 7.61554 7.23098 7.23016C7.61637 6.84464 8.00319 6.60774 8.45921 6.43065C8.90006 6.2592 9.40388 6.14234 10.142 6.10854Z" fill="#E6E6E6"/>
<path fill-rule="evenodd" clip-rule="evenodd" d="M12.3789 7.31619C12.4996 7.316 12.6296 7.31606 12.7698 7.31612L13.0008 7.31619C14.8521 7.31619 15.0715 7.32283 15.8025 7.35605C16.4785 7.38696 16.8454 7.49992 17.0898 7.59482C17.4134 7.72049 17.6441 7.87071 17.8866 8.11338C18.1293 8.35605 18.2795 8.58717 18.4054 8.91073C18.5003 9.15484 18.6134 9.52173 18.6442 10.1977C18.6774 10.9286 18.6846 11.1482 18.6846 12.9985C18.6846 14.8489 18.6774 15.0685 18.6442 15.7994C18.6133 16.4754 18.5003 16.8423 18.4054 17.0864C18.2798 17.4099 18.1293 17.6403 17.8866 17.8828C17.6439 18.1255 17.4135 18.2757 17.0898 18.4014C16.8457 18.4967 16.4785 18.6094 15.8025 18.6403C15.0716 18.6735 14.8521 18.6808 13.0008 18.6808C11.1495 18.6808 10.9301 18.6735 10.1992 18.6403C9.52316 18.6091 9.15627 18.4962 8.91172 18.4013C8.58816 18.2756 8.35705 18.1254 8.11438 17.8827C7.87171 17.64 7.72149 17.4095 7.59553 17.0858C7.50063 16.8417 7.38753 16.4748 7.35676 15.7988C7.32354 15.0679 7.31689 14.8483 7.31689 12.9968C7.31689 11.1453 7.32354 10.9269 7.35676 10.196C7.38767 9.52 7.50063 9.15311 7.59553 8.9087C7.7212 8.58514 7.87171 8.35403 8.11438 8.11136C8.35705 7.86869 8.58816 7.71847 8.91172 7.59251C9.15612 7.49718 9.52316 7.38451 10.1992 7.35345C10.8388 7.32456 11.0866 7.3159 12.3789 7.31445V7.31619ZM16.7016 8.46733C16.2423 8.46733 15.8696 8.83957 15.8696 9.29905C15.8696 9.75839 16.2423 10.1311 16.7016 10.1311C17.161 10.1311 17.5336 9.75839 17.5336 9.29905C17.5336 8.83971 17.161 8.46704 16.7016 8.46704V8.46733ZM9.44043 13C9.44043 11.0338 11.0346 9.43953 13.0009 9.43945C14.9672 9.43945 16.561 11.0337 16.561 13C16.561 14.9664 14.9674 16.5599 13.001 16.5599C11.0347 16.5599 9.44043 14.9664 9.44043 13Z" fill="#E6E6E6"/>
<path fill-rule="evenodd" clip-rule="evenodd" d="M13.0006 10.689C14.2769 10.689 15.3117 11.7236 15.3117 13.0001C15.3117 14.2764 14.2769 15.3112 13.0006 15.3112C11.7241 15.3112 10.6895 14.2764 10.6895 13.0001C10.6895 11.7236 11.7241 10.689 13.0006 10.689V10.689Z" fill="#E6E6E6"/>
</svg>
