<svg width="30" height="31" viewBox="0 0 30 31" fill="none" xmlns="http://www.w3.org/2000/svg">
<path fill-rule="evenodd" clip-rule="evenodd" d="M15 30.0769C23.2843 30.0769 30 23.3612 30 15.0769C30 6.79265 23.2843 0.0769234 15 0.0769234C6.71573 0.0769234 0 6.79265 0 15.0769C0 23.3612 6.71573 30.0769 15 30.0769Z" fill="#25D366"/>
<path fill-rule="evenodd" clip-rule="evenodd" d="M15.4944 23.4222H15.4907C13.9979 23.4217 12.5311 23.0472 11.2283 22.3366L6.5 23.5769L7.76538 18.9549C6.98483 17.6022 6.57411 16.0679 6.57478 14.4958C6.57674 9.57798 10.578 5.57692 15.4943 5.57692C17.8804 5.57795 20.1199 6.50684 21.8039 8.1928C23.4879 9.87868 24.4148 12.1196 24.4138 14.5029C24.4119 19.4196 20.4122 23.4202 15.4944 23.4222ZM11.4474 20.7218L11.7182 20.8825C12.8564 21.558 14.1611 21.9154 15.4914 21.9159H15.4944C19.5805 21.9159 22.9062 18.5901 22.9079 14.5023C22.9086 12.5214 22.1382 10.6588 20.7386 9.25753C19.3389 7.85622 17.4775 7.08413 15.4974 7.08344C11.4081 7.08344 8.08238 10.4089 8.08076 14.4963C8.08018 15.8971 8.47213 17.2614 9.21423 18.4417L9.3905 18.7222L8.64158 21.4579L11.4474 20.7218ZM19.988 16.6239C19.9323 16.5309 19.7838 16.4751 19.5609 16.3635C19.338 16.252 18.2423 15.7129 18.038 15.6385C17.8337 15.5641 17.6851 15.527 17.5365 15.75C17.388 15.9731 16.9609 16.4751 16.8309 16.6239C16.7009 16.7726 16.5708 16.7912 16.3481 16.6797C16.1252 16.5681 15.4071 16.3328 14.5558 15.5735C13.8932 14.9825 13.446 14.2527 13.316 14.0296C13.186 13.8065 13.3021 13.6859 13.4137 13.5747C13.5139 13.4749 13.6366 13.3144 13.748 13.1843C13.8594 13.0542 13.8966 12.9612 13.9708 12.8125C14.0451 12.6637 14.008 12.5336 13.9523 12.4221C13.8966 12.3105 13.4508 11.2135 13.2651 10.7672C13.0842 10.3327 12.9005 10.3915 12.7637 10.3847C12.6338 10.3781 12.4851 10.3768 12.3365 10.3768C12.188 10.3768 11.9465 10.4325 11.7422 10.6557C11.5379 10.8788 10.9622 11.418 10.9622 12.5149C10.9622 13.6119 11.7608 14.6717 11.8722 14.8204C11.9837 14.9692 13.4438 17.2202 15.6795 18.1856C16.2112 18.4152 16.6263 18.5524 16.95 18.6551C17.4839 18.8247 17.9697 18.8008 18.3537 18.7434C18.7819 18.6794 19.6723 18.2043 19.8581 17.6837C20.0437 17.163 20.0437 16.7168 19.988 16.6239Z" fill="#FDFDFD"/>
</svg>
