<svg width="130" height="130" viewBox="0 0 130 130" fill="none" xmlns="http://www.w3.org/2000/svg">
<path d="M65 130C100.899 130 130 100.899 130 65C130 29.1015 100.899 0 65 0C29.1015 0 0 29.1015 0 65C0 100.899 29.1015 130 65 130Z" fill="#66B96A"/>
<path fill-rule="evenodd" clip-rule="evenodd" d="M94.7197 52.1707L61.0966 85.7941C60.0404 86.8486 58.6068 87.4434 57.1137 87.4434C55.6194 87.4434 54.1867 86.8489 53.1304 85.7941L35.2794 67.9431C33.0803 65.744 33.0797 62.1751 35.2794 59.9763C37.48 57.7772 41.0454 57.7772 43.245 59.9763L57.1137 73.8431L86.7535 44.2066C88.9531 42.0048 92.5191 42.0075 94.7191 44.2039C96.9182 46.403 96.9182 49.9717 94.7197 52.1707ZM64.9991 117.572C93.9888 117.572 117.573 93.9863 117.573 64.9987C117.573 36.0111 93.9888 12.4254 64.9991 12.4254C36.0106 12.4254 12.4258 36.0111 12.4258 64.9987C12.4258 93.9863 36.0106 117.572 64.9991 117.572Z" fill="white"/>
</svg>
