<svg width="26" height="26" viewBox="0 0 26 26" fill="none" xmlns="http://www.w3.org/2000/svg">
<path fill-rule="evenodd" clip-rule="evenodd" d="M13 0C5.8203 0 0 5.8203 0 13C0 20.1797 5.8203 26 13 26C20.1797 26 26 20.1797 26 13C26 5.8203 20.1797 0 13 0ZM10.1418 6.10856C10.8813 6.0749 11.1177 6.06667 13.0006 6.06667H12.9985C14.8821 6.06667 15.1175 6.0749 15.8571 6.10856C16.5952 6.14236 17.0993 6.25921 17.5413 6.43067C17.9978 6.60762 18.3834 6.84451 18.7691 7.23018C19.1548 7.61556 19.3917 8.00239 19.5693 8.4584C19.7398 8.89925 19.8568 9.40308 19.8914 10.1412C19.9247 10.8808 19.9333 11.1171 19.9333 13.0001C19.9333 14.8831 19.9247 15.1188 19.8914 15.8584C19.8568 16.5962 19.7398 17.1002 19.5693 17.5412C19.3917 17.997 19.1548 18.3839 18.7691 18.7692C18.3839 19.1549 17.9976 19.3924 17.5417 19.5695C17.1006 19.7409 16.5962 19.8578 15.8581 19.8916C15.1185 19.9252 14.8829 19.9335 12.9998 19.9335C11.1169 19.9335 10.8808 19.9252 10.1412 19.8916C9.40322 19.8578 8.89925 19.7409 8.45811 19.5695C8.00239 19.3924 7.61556 19.1549 7.23032 18.7692C6.8448 18.3839 6.60791 17.997 6.43067 17.541C6.25936 17.1002 6.1425 16.5963 6.10856 15.8582C6.07504 15.1187 6.06667 14.8831 6.06667 13.0001C6.06667 11.1171 6.07533 10.8806 6.10841 10.1411C6.14163 9.40322 6.25864 8.89925 6.43053 8.45826C6.60819 8.00239 6.84509 7.61556 7.23076 7.23018C7.61614 6.84465 8.00296 6.60776 8.45898 6.43067C8.89983 6.25921 9.40366 6.14236 10.1418 6.10856Z" fill="#828A96"/>
<path fill-rule="evenodd" clip-rule="evenodd" d="M12.3789 7.31613C12.4996 7.31594 12.6296 7.31599 12.7698 7.31606L13.0008 7.31613C14.8521 7.31613 15.0715 7.32277 15.8025 7.35599C16.4785 7.3869 16.8454 7.49986 17.0898 7.59476C17.4134 7.72043 17.6441 7.87065 17.8866 8.11332C18.1293 8.35599 18.2795 8.58711 18.4054 8.91066C18.5003 9.15478 18.6134 9.52167 18.6442 10.1977C18.6774 10.9286 18.6846 11.1481 18.6846 12.9985C18.6846 14.8488 18.6774 15.0684 18.6442 15.7993C18.6133 16.4753 18.5003 16.8422 18.4054 17.0863C18.2798 17.4099 18.1293 17.6403 17.8866 17.8828C17.6439 18.1254 17.4135 18.2757 17.0898 18.4013C16.8457 18.4967 16.4785 18.6093 15.8025 18.6403C15.0716 18.6735 14.8521 18.6807 13.0008 18.6807C11.1495 18.6807 10.9301 18.6735 10.1992 18.6403C9.52316 18.6091 9.15627 18.4961 8.91172 18.4012C8.58816 18.2755 8.35705 18.1253 8.11438 17.8826C7.87171 17.64 7.72149 17.4094 7.59553 17.0857C7.50063 16.8416 7.38753 16.4747 7.35676 15.7987C7.32354 15.0678 7.31689 14.8483 7.31689 12.9968C7.31689 11.1452 7.32354 10.9268 7.35676 10.1959C7.38767 9.51994 7.50063 9.15304 7.59553 8.90864C7.7212 8.58508 7.87171 8.35397 8.11438 8.1113C8.35705 7.86863 8.58816 7.71841 8.91172 7.59245C9.15612 7.49712 9.52316 7.38445 10.1992 7.35339C10.8388 7.3245 11.0866 7.31584 12.3789 7.31439V7.31613ZM16.7019 8.46736C16.2425 8.46736 15.8699 8.8396 15.8699 9.29908C15.8699 9.75842 16.2425 10.1311 16.7019 10.1311C17.1612 10.1311 17.5339 9.75842 17.5339 9.29908C17.5339 8.83974 17.1612 8.46707 16.7019 8.46707V8.46736ZM9.44021 13.0001C9.44021 11.0338 11.0344 9.43956 13.0007 9.43948C14.967 9.43948 16.5608 11.0337 16.5608 13.0001C16.5608 14.9664 14.9671 16.5599 13.0008 16.5599C11.0345 16.5599 9.44021 14.9664 9.44021 13.0001Z" fill="#828A96"/>
<path fill-rule="evenodd" clip-rule="evenodd" d="M13.0006 10.6889C14.2769 10.6889 15.3117 11.7236 15.3117 13.0001C15.3117 14.2764 14.2769 15.3112 13.0006 15.3112C11.7241 15.3112 10.6895 14.2764 10.6895 13.0001C10.6895 11.7236 11.7241 10.6889 13.0006 10.6889V10.6889Z" fill="#828A96"/>
</svg>
