<svg width="18" height="18" viewBox="0 0 18 18" fill="none" xmlns="http://www.w3.org/2000/svg">
<path d="M11.262 1.93519C12.3314 3.00583 13.0006 4.4112 13.1579 5.91621C13.3152 7.42122 12.9509 8.9346 12.126 10.2032C12.27 10.3232 12.39 10.4552 12.558 10.5752C12.798 10.7672 13.122 11.0072 13.53 11.2832C13.938 11.5712 14.202 11.7512 14.322 11.8472C14.826 12.2192 15.198 12.5312 15.45 12.7832C15.834 13.1672 16.17 13.5632 16.458 13.9832C16.758 14.4032 16.986 14.8112 17.166 15.2312C17.334 15.6512 17.418 16.0472 17.382 16.4312C17.358 16.8152 17.214 17.1392 16.95 17.4032C16.686 17.6672 16.362 17.8112 15.978 17.8352C15.606 17.8592 15.198 17.7872 14.79 17.6072C14.37 17.4392 13.95 17.1992 13.542 16.8992C13.122 16.6112 12.726 16.2752 12.342 15.8912C12.09 15.6392 11.778 15.2672 11.418 14.7752C11.298 14.6192 11.118 14.3552 10.854 13.9832C10.59 13.5992 10.374 13.2992 10.182 13.0472C9.99 12.8072 9.834 12.6272 9.654 12.4472C8.40846 13.0994 6.98726 13.337 5.5973 13.1255C4.20734 12.914 2.92116 12.2644 1.926 11.2712C-0.642 8.69119 -0.642 4.50319 1.926 1.93519C2.53875 1.32171 3.26641 0.835023 4.06738 0.502969C4.86836 0.170914 5.72693 0 6.594 0C7.46107 0 8.31964 0.170914 9.12062 0.502969C9.92159 0.835023 10.6493 1.32171 11.262 1.93519ZM9.57 9.56719C10.3539 8.77751 10.7939 7.70991 10.7939 6.59719C10.7939 5.48446 10.3539 4.41686 9.57 3.62719C9.18039 3.23642 8.7175 2.92638 8.20785 2.71483C7.6982 2.50328 7.15181 2.39439 6.6 2.39439C6.04819 2.39439 5.5018 2.50328 4.99215 2.71483C4.4825 2.92638 4.01961 3.23642 3.63 3.62719C3.23923 4.0168 2.92919 4.47969 2.71765 4.98934C2.5061 5.49899 2.3972 6.04538 2.3972 6.59719C2.3972 7.149 2.5061 7.69538 2.71765 8.20503C2.92919 8.71468 3.23923 9.17758 3.63 9.56719C4.01961 9.95795 4.4825 10.268 4.99215 10.4795C5.5018 10.6911 6.04819 10.8 6.6 10.8C7.15181 10.8 7.6982 10.6911 8.20785 10.4795C8.7175 10.268 9.18039 9.95795 9.57 9.56719Z" fill="#EB6907"/>
</svg>
