<svg width="26" height="26" viewBox="0 0 26 26" fill="none" xmlns="http://www.w3.org/2000/svg">
<path fill-rule="evenodd" clip-rule="evenodd" d="M13 0C5.8203 0 0 5.8203 0 13C0 20.1797 5.8203 26 13 26C20.1797 26 26 20.1797 26 13C26 5.8203 20.1797 0 13 0ZM10.1415 6.10857C10.8811 6.07491 11.1174 6.06668 13.0004 6.06668H12.9982C14.8818 6.06668 15.1172 6.07491 15.8568 6.10857C16.5949 6.14237 17.099 6.25923 17.541 6.43068C17.9975 6.60763 18.3832 6.84452 18.7688 7.23019C19.1545 7.61557 19.3914 8.0024 19.5691 8.45842C19.7395 8.89927 19.8565 9.40309 19.8912 10.1412C19.9244 10.8808 19.9331 11.1171 19.9331 13.0001C19.9331 14.8831 19.9244 15.1188 19.8912 15.8584C19.8565 16.5962 19.7395 17.1002 19.5691 17.5412C19.3914 17.997 19.1545 18.3839 18.7688 18.7693C18.3836 19.1549 17.9974 19.3924 17.5415 19.5695C17.1003 19.7409 16.5959 19.8578 15.8578 19.8916C15.1183 19.9253 14.8827 19.9335 12.9995 19.9335C11.1167 19.9335 10.8805 19.9253 10.1409 19.8916C9.40296 19.8578 8.89899 19.7409 8.45785 19.5695C8.00213 19.3924 7.6153 19.1549 7.23006 18.7693C6.84454 18.3839 6.60765 17.997 6.43041 17.541C6.2591 17.1002 6.14224 16.5964 6.1083 15.8582C6.07478 15.1187 6.06641 14.8831 6.06641 13.0001C6.06641 11.1171 6.07507 10.8806 6.10815 10.1411C6.14137 9.40324 6.25837 8.89927 6.43027 8.45827C6.60793 8.0024 6.84483 7.61557 7.2305 7.23019C7.61588 6.84467 8.0027 6.60778 8.45872 6.43068C8.89957 6.25923 9.4034 6.14237 10.1415 6.10857Z" fill="#828A96"/>
<path fill-rule="evenodd" clip-rule="evenodd" d="M12.3784 7.31613C12.4991 7.31594 12.6291 7.31599 12.7693 7.31606L13.0004 7.31613C14.8516 7.31613 15.071 7.32277 15.802 7.35599C16.478 7.3869 16.8449 7.49986 17.0893 7.59476C17.4129 7.72043 17.6436 7.87065 17.8861 8.11332C18.1288 8.35599 18.279 8.58711 18.4049 8.91066C18.4998 9.15478 18.6129 9.52167 18.6437 10.1977C18.6769 10.9286 18.6842 11.1481 18.6842 12.9985C18.6842 14.8488 18.6769 15.0684 18.6437 15.7993C18.6128 16.4753 18.4998 16.8422 18.4049 17.0863C18.2793 17.4099 18.1288 17.6403 17.8861 17.8828C17.6434 18.1254 17.413 18.2757 17.0893 18.4013C16.8452 18.4967 16.478 18.6093 15.802 18.6403C15.0711 18.6735 14.8516 18.6807 13.0004 18.6807C11.149 18.6807 10.9296 18.6735 10.1987 18.6403C9.52267 18.6091 9.15578 18.4961 8.91123 18.4012C8.58767 18.2755 8.35656 18.1253 8.11389 17.8826C7.87122 17.64 7.721 17.4094 7.59504 17.0857C7.50014 16.8416 7.38704 16.4747 7.35627 15.7987C7.32305 15.0678 7.31641 14.8483 7.31641 12.9968C7.31641 11.1452 7.32305 10.9268 7.35627 10.1959C7.38718 9.51994 7.50014 9.15304 7.59504 8.90864C7.72071 8.58508 7.87122 8.35397 8.11389 8.1113C8.35656 7.86863 8.58767 7.71841 8.91123 7.59245C9.15564 7.49712 9.52267 7.38445 10.1987 7.35339C10.8383 7.3245 11.0862 7.31584 12.3784 7.31439V7.31613ZM16.7011 8.46736C16.2418 8.46736 15.8691 8.8396 15.8691 9.29908C15.8691 9.75842 16.2418 10.1311 16.7011 10.1311C17.1605 10.1311 17.5332 9.75842 17.5332 9.29908C17.5332 8.83974 17.1605 8.46707 16.7011 8.46707V8.46736ZM9.43945 13.0001C9.43945 11.0338 11.0336 9.43956 12.9999 9.43948C14.9662 9.43948 16.5601 11.0337 16.5601 13.0001C16.5601 14.9664 14.9664 16.5599 13 16.5599C11.0337 16.5599 9.43945 14.9664 9.43945 13.0001Z" fill="#828A96"/>
<path fill-rule="evenodd" clip-rule="evenodd" d="M13.0006 10.6889C14.2769 10.6889 15.3117 11.7236 15.3117 13.0001C15.3117 14.2764 14.2769 15.3112 13.0006 15.3112C11.7241 15.3112 10.6895 14.2764 10.6895 13.0001C10.6895 11.7236 11.7241 10.6889 13.0006 10.6889V10.6889Z" fill="#828A96"/>
</svg>
