<svg width="24" height="24" viewBox="0 0 24 24" fill="none" xmlns="http://www.w3.org/2000/svg">
<g opacity="0.4">
<path d="M12.001 22.007C17.515 22.006 22.001 17.52 22.001 12.006C22.001 6.49196 17.515 2.00596 12 2.00596C6.48697 2.00596 2.00098 6.49196 1.99998 12.006C1.99998 17.52 6.48598 22.006 12.001 22.007ZM12 4.00596C16.412 4.00596 20.001 7.59496 20.001 12.006C20.001 16.417 16.412 20.006 12.001 20.007C7.58898 20.006 3.99998 16.417 3.99998 12.006C4.00098 7.59496 7.58997 4.00596 12 4.00596Z" fill="#575756"/>
<path d="M12 13.006L16 13.006L16 11.006L12 11.006L12 8.00003L7.995 12.005L12 16.009L12 13.006Z" fill="#575756"/>
</g>
</svg>
