<svg width="32" height="32" viewBox="0 0 32 32" fill="none" xmlns="http://www.w3.org/2000/svg">
<path d="M10 30H8V27H4V30H2V27C2.00053 26.4697 2.21141 25.9613 2.58637 25.5864C2.96133 25.2114 3.46973 25.0005 4 25H8C8.53027 25.0005 9.03867 25.2114 9.41363 25.5864C9.78859 25.9613 9.99947 26.4697 10 27V30Z" fill="#FA8151"/>
<path d="M30 30H28V27H24V30H22V27C22.0005 26.4697 22.2114 25.9613 22.5864 25.5864C22.9613 25.2114 23.4697 25.0005 24 25H28C28.5303 25.0005 29.0387 25.2114 29.4136 25.5864C29.7886 25.9613 29.9995 26.4697 30 27V30Z" fill="#FA8151"/>
<path d="M20 30H18V27H14V30H12V27C12.0005 26.4697 12.2114 25.9613 12.5864 25.5864C12.9613 25.2114 13.4697 25.0005 14 25H18C18.5303 25.0005 19.0387 25.2114 19.4136 25.5864C19.7886 25.9613 19.9995 26.4697 20 27V30Z" fill="#FA8151"/>
<path d="M16 24C17.1046 24 18 23.1046 18 22C18 20.8954 17.1046 20 16 20C14.8954 20 14 20.8954 14 22C14 23.1046 14.8954 24 16 24Z" fill="#FA8151"/>
<path d="M6 24C7.10457 24 8 23.1046 8 22C8 20.8954 7.10457 20 6 20C4.89543 20 4 20.8954 4 22C4 23.1046 4.89543 24 6 24Z" fill="#FA8151"/>
<path d="M26 24C27.1046 24 28 23.1046 28 22C28 20.8954 27.1046 20 26 20C24.8954 20 24 20.8954 24 22C24 23.1046 24.8954 24 26 24Z" fill="#FA8151"/>
<path d="M21 20C22.1046 20 23 19.1046 23 18C23 16.8954 22.1046 16 21 16C19.8954 16 19 16.8954 19 18C19 19.1046 19.8954 20 21 20Z" fill="#FA8151"/>
<path d="M11 20C12.1046 20 13 19.1046 13 18C13 16.8954 12.1046 16 11 16C9.89543 16 9 16.8954 9 18C9 19.1046 9.89543 20 11 20Z" fill="#FA8151"/>
<path d="M26 14H6C5.46973 13.9995 4.96133 13.7886 4.58637 13.4136C4.21141 13.0387 4.00053 12.5303 4 12V4C4.00053 3.46973 4.21141 2.96133 4.58637 2.58637C4.96133 2.21141 5.46973 2.00053 6 2H26C26.5303 2.00053 27.0387 2.21141 27.4136 2.58637C27.7886 2.96133 27.9995 3.46973 28 4V12C27.9995 12.5303 27.7886 13.0387 27.4136 13.4136C27.0387 13.7886 26.5303 13.9995 26 14ZM6 4V12H26V4H6Z" fill="#FA8151"/>
</svg>
