<svg width="92" height="92" viewBox="0 0 92 92" fill="none" xmlns="http://www.w3.org/2000/svg">
<path d="M5.49708 1C3.03001 1 1 3.02696 1 5.49401V86.4911C1 88.9582 3.03002 91 5.49708 91H86.5059C88.9729 91 91 88.9582 91 86.4911V5.49401C91 3.02696 88.9729 1 86.5059 1H5.49708ZM5.49708 3.99987H86.5059C87.3628 3.99987 88 4.6371 88 5.49401V18.9911H4.00293V5.49401C4.00293 4.6371 4.64013 3.99987 5.49708 3.99987ZM11.4971 6.99992C9.02956 6.99992 7.00293 9.02954 7.00293 11.497C7.00294 13.9646 9.02956 15.9912 11.4971 15.9912C13.9646 15.9912 16.0059 13.9646 16.0059 11.497C16.0059 9.02954 13.9646 6.99992 11.4971 6.99992ZM23.5 6.99992C21.0325 6.99992 19.0058 9.02954 19.0059 11.497C19.0059 13.9646 21.0325 15.9912 23.5 15.9912C25.9675 15.9912 27.9971 13.9646 27.9971 11.497C27.9971 9.02954 25.9675 6.99992 23.5 6.99992ZM35.5029 6.99992C33.0354 6.99992 30.9971 9.02954 30.9971 11.497C30.9971 13.9646 33.0354 15.9912 35.5029 15.9912C37.9704 15.9912 40 13.9646 40 11.497C40 9.02954 37.9704 6.99992 35.5029 6.99992ZM53.4268 6.99992C52.5877 7.07702 52.0022 7.72287 52.0029 8.49406V14.4971C52.0059 15.3209 52.6732 15.9879 53.4971 15.9912H83.5059C84.3297 15.9882 84.9967 15.3209 85 14.4971V8.49406C84.997 7.6702 84.3297 7.00321 83.5059 6.99992H53.4268ZM11.4971 10.0029C12.3433 10.0029 13.0029 10.6508 13.0029 11.497C13.0029 12.3432 12.3433 13.003 11.4971 13.003C10.6509 13.003 10.0029 12.3432 10.0029 11.497C10.0029 10.6508 10.6509 10.0029 11.4971 10.0029ZM23.5 10.0029C24.3462 10.0029 24.9941 10.6508 24.9941 11.497C24.9941 12.3432 24.3462 13.003 23.5 13.003C22.6538 13.003 21.9942 12.3432 21.9941 11.497C21.9941 10.6508 22.6538 10.0029 23.5 10.0029ZM35.5029 10.0029C36.3491 10.0029 36.9971 10.6508 36.9971 11.497C36.9971 12.3432 36.3491 13.003 35.5029 13.003C34.6567 13.003 33.9971 12.3432 33.9971 11.497C33.9971 10.6508 34.6567 10.0029 35.5029 10.0029ZM55.0029 10.0029H81.9971V13.003H55.0029V10.0029ZM4.00293 21.9941H88V86.4911C88 87.3481 87.3628 88 86.5059 88H5.49708C4.64013 88 4.00293 87.3481 4.00293 86.4911V21.9941ZM11.5029 27.9999C10.6745 27.9969 10.0004 28.6656 9.99708 29.494V68.5059C10.0001 69.3343 10.6745 70.0031 11.5029 70H80.4971C81.3255 70.003 81.9996 69.3343 82.0029 68.5059V29.494C81.9999 28.6656 81.3255 27.9968 80.4971 27.9999H11.5029ZM12.9971 31.0029H79.0029V67H12.9971V31.0029ZM39.9385 40.0028C39.1353 40.0369 38.4997 40.6932 38.4971 41.497V56.5028C38.4982 57.6797 39.7923 58.3972 40.791 57.7744L52.7939 50.2686C53.7265 49.6799 53.7265 48.32 52.7939 47.7313L40.791 40.2255C40.5356 40.0673 40.2385 39.9902 39.9385 40.0027V40.0028ZM41.4971 44.2012L49.1816 49.0058L41.4971 53.8017V44.2012ZM26.4736 72.9795C25.6498 72.9965 24.9919 73.6702 25 74.494V76.0029H11.4238C9.42334 76.0029 9.42334 79.0028 11.4238 79.0028H25V80.4971C24.9545 82.5419 28.0454 82.5419 28 80.4971V74.494C28.0091 73.6495 27.3181 72.9647 26.4736 72.9795ZM32.4971 79.0028H80.4971C82.542 79.0481 82.542 75.9575 80.4971 76.0029H32.4253C30.4 76.1401 30.5394 79.0525 32.4971 79.0028H32.4971Z" fill="#828A96" stroke="white"/>
</svg>
