<svg width="18" height="18" viewBox="0 0 18 18" fill="none" xmlns="http://www.w3.org/2000/svg">
<path d="M11.5682 2.016C12.6375 3.08664 13.3068 4.49201 13.4641 5.99702C13.6213 7.50203 13.2571 9.01541 12.4322 10.284C12.5762 10.404 12.6962 10.536 12.8642 10.656C13.1042 10.848 13.4282 11.088 13.8362 11.364C14.2442 11.652 14.5082 11.832 14.6282 11.928C15.1322 12.3 15.5042 12.612 15.7562 12.864C16.1402 13.248 16.4762 13.644 16.7642 14.064C17.0642 14.484 17.2922 14.892 17.4722 15.312C17.6402 15.732 17.7242 16.128 17.6882 16.512C17.6642 16.896 17.5202 17.22 17.2562 17.484C16.9922 17.748 16.6682 17.892 16.2842 17.916C15.9122 17.94 15.5042 17.868 15.0962 17.688C14.6762 17.52 14.2562 17.28 13.8482 16.98C13.4282 16.692 13.0322 16.356 12.6482 15.972C12.3962 15.72 12.0842 15.348 11.7242 14.856C11.6042 14.7 11.4242 14.436 11.1602 14.064C10.8962 13.68 10.6802 13.38 10.4882 13.128C10.2962 12.888 10.1402 12.708 9.96015 12.528C8.71461 13.1802 7.29342 13.4178 5.90345 13.2063C4.51349 12.9948 3.22732 12.3452 2.23215 11.352C-0.335848 8.772 -0.335848 4.584 2.23215 2.016C2.8449 1.40252 3.57256 0.915838 4.37354 0.583783C5.17451 0.251728 6.03308 0.0808144 6.90015 0.0808144C7.76723 0.0808144 8.6258 0.251728 9.42677 0.583783C10.2277 0.915838 10.9554 1.40252 11.5682 2.016ZM9.87615 9.648C10.6601 8.85832 11.1 7.79073 11.1 6.678C11.1 5.56527 10.6601 4.49768 9.87615 3.708C9.48654 3.31723 9.02365 3.00719 8.514 2.79565C8.00435 2.5841 7.45796 2.47521 6.90615 2.47521C6.35434 2.47521 5.80796 2.5841 5.29831 2.79565C4.78866 3.00719 4.32576 3.31723 3.93615 3.708C3.54539 4.09761 3.23534 4.5605 3.0238 5.07015C2.81225 5.5798 2.70336 6.12619 2.70336 6.678C2.70336 7.22981 2.81225 7.7762 3.0238 8.28585C3.23534 8.7955 3.54539 9.25839 3.93615 9.648C4.32576 10.0388 4.78866 10.3488 5.29831 10.5604C5.80796 10.7719 6.35434 10.8808 6.90615 10.8808C7.45796 10.8808 8.00435 10.7719 8.514 10.5604C9.02365 10.3488 9.48654 10.0388 9.87615 9.648Z" fill="#828A96"/>
</svg>
