<svg width="29" height="30" viewBox="0 0 29 30" fill="none" xmlns="http://www.w3.org/2000/svg">
<path d="M26.9176 15.5571C26.8034 15.3234 26.8034 15.0555 26.9176 14.8219L27.976 12.6567C28.5653 11.4511 28.0984 10.0141 26.913 9.3852L24.7841 8.2556C24.5544 8.13377 24.3969 7.91694 24.352 7.66093L23.9356 5.28705C23.7038 3.96534 22.4811 3.07717 21.1527 3.26513L18.7664 3.60268C18.5089 3.63904 18.2542 3.55623 18.0673 3.37548L16.3352 1.69981C15.3707 0.766756 13.8598 0.766701 12.8953 1.69981L11.1631 3.37565C10.9762 3.55645 10.7215 3.63909 10.464 3.60284L8.07774 3.26529C6.74888 3.07723 5.52672 3.9655 5.29487 5.28721L4.8785 7.66098C4.83355 7.91706 4.67608 8.13383 4.44645 8.25571L2.3175 9.38531C1.13214 10.0142 0.665222 11.4512 1.25452 12.6568L2.3129 14.822C2.42708 15.0557 2.42708 15.3236 2.3129 15.5572L1.25447 17.7224C0.665166 18.928 1.13208 20.3649 2.31744 20.9938L4.44639 22.1234C4.67608 22.2453 4.83355 22.4621 4.8785 22.7181L5.29487 25.092C5.50593 26.2952 6.53765 27.139 7.7234 27.1389C7.84018 27.1389 7.95868 27.1307 8.0778 27.1138L10.4641 26.7763C10.7214 26.7398 10.9763 26.8227 11.1632 27.0035L12.8953 28.6792C13.3777 29.1457 13.9963 29.379 14.6152 29.3789C15.234 29.3789 15.853 29.1456 16.3351 28.6792L18.0673 27.0035C18.2542 26.8227 18.509 26.7402 18.7664 26.7763L21.1527 27.1138C22.4818 27.3019 23.7038 26.4136 23.9356 25.0919L24.352 22.7182C24.397 22.4621 24.5544 22.2453 24.7841 22.1234L26.913 20.9938C28.0984 20.365 28.5653 18.9279 27.976 17.7223L26.9176 15.5571ZM26.1459 19.5479L24.0169 20.6775C23.3382 21.0377 22.8726 21.6783 22.7399 22.4353L22.3235 24.8091C22.2451 25.2563 21.8317 25.5566 21.382 25.4932L18.9957 25.1556C18.2347 25.0478 17.4816 25.2927 16.9293 25.827L15.1971 27.5026C14.8709 27.8182 14.3597 27.8182 14.0333 27.5026L12.3012 25.8269C11.8344 25.3754 11.2241 25.1307 10.587 25.1307C10.4703 25.1307 10.3526 25.1389 10.2348 25.1556L7.8485 25.4931C7.3992 25.5566 6.98544 25.2562 6.90696 24.809L6.49054 22.4351C6.35773 21.6782 5.89226 21.0376 5.21344 20.6774L3.0845 19.5478C2.68343 19.3351 2.52546 18.8489 2.72483 18.441L3.78326 16.2758C4.1207 15.5854 4.1207 14.7935 3.78326 14.1031L2.72483 11.9379C2.52546 11.53 2.68343 11.0439 3.0845 10.8311L5.21344 9.70147C5.8922 9.34125 6.35773 8.70063 6.49048 7.94372L6.90685 5.56989C6.98533 5.12271 7.39871 4.82229 7.84838 4.88581L10.2347 5.22336C10.9954 5.33106 11.7487 5.08623 12.3011 4.55197L14.0333 2.87631C14.3595 2.56071 14.8707 2.56071 15.1971 2.87631L16.9292 4.55197C17.4815 5.08629 18.2347 5.33106 18.9956 5.22336L21.3819 4.88581C21.8312 4.82224 22.245 5.12271 22.3234 5.56989L22.7398 7.94377C22.8726 8.70068 23.338 9.34136 24.0169 9.70147L26.1458 10.8311C26.5469 11.0439 26.7048 11.53 26.5055 11.9379L25.447 14.1031C25.1096 14.7934 25.1096 15.5854 25.447 16.2757L26.5055 18.4409C26.7049 18.8489 26.5469 19.3351 26.1459 19.5479Z" fill="#FA8151" stroke="#FA8151" stroke-width="0.3"/>
<path d="M20.5976 9.20966C20.2781 8.89007 19.7598 8.89007 19.4402 9.20966L8.63813 20.0118C8.31854 20.3314 8.31854 20.8496 8.63813 21.1692C8.79793 21.329 9.00739 21.4089 9.21679 21.4089C9.42619 21.4089 9.63571 21.329 9.79545 21.1692L20.5976 10.3671C20.9173 10.0474 20.9173 9.52931 20.5976 9.20966Z" fill="#FA8151" stroke="#FA8151" stroke-width="0.3"/>
<path d="M11.3426 7.82397C9.68795 7.82397 8.3418 9.17013 8.3418 10.8247C8.3418 12.4793 9.68795 13.8255 11.3426 13.8255C12.9972 13.8255 14.3433 12.4793 14.3433 10.8247C14.3433 9.17013 12.9972 7.82397 11.3426 7.82397ZM11.3426 12.1887C10.5905 12.1887 9.97861 11.5768 9.97861 10.8247C9.97861 10.0726 10.5905 9.46073 11.3426 9.46073C12.0946 9.46073 12.7066 10.0726 12.7066 10.8247C12.7065 11.5768 12.0946 12.1887 11.3426 12.1887Z" fill="#FA8151" stroke="#FA8151" stroke-width="0.3"/>
<path d="M17.8875 16.5535C16.2329 16.5535 14.8867 17.8996 14.8867 19.5542C14.8867 21.2088 16.2329 22.555 17.8875 22.555C19.5421 22.555 20.8882 21.2088 20.8882 19.5542C20.8882 17.8996 19.5421 16.5535 17.8875 16.5535ZM17.8875 20.9182C17.1354 20.9182 16.5235 20.3063 16.5235 19.5542C16.5235 18.8021 17.1353 18.1903 17.8875 18.1903C18.6396 18.1903 19.2514 18.8021 19.2514 19.5542C19.2514 20.3063 18.6396 20.9182 17.8875 20.9182Z" fill="#FA8151" stroke="#FA8151" stroke-width="0.3"/>
</svg>
