<svg width="26" height="26" viewBox="0 0 26 26" fill="none" xmlns="http://www.w3.org/2000/svg">
<path fill-rule="evenodd" clip-rule="evenodd" d="M13 0C5.8203 0 0 5.8203 0 13C0 20.1797 5.8203 26 13 26C20.1797 26 26 20.1797 26 13C26 5.8203 20.1797 0 13 0ZM14.0582 17.1038C13.93 17.2389 13.6798 17.2662 13.6798 17.2662H12.851C12.851 17.2662 11.0225 17.3741 9.41175 15.7283C7.65516 13.9329 6.10407 10.3705 6.10407 10.3705C6.10407 10.3705 6.01455 10.1368 6.11153 10.0243C6.22073 9.89715 6.51847 9.88916 6.51847 9.88916L8.49954 9.87651C8.49954 9.87651 8.68605 9.90647 8.81966 10.003C8.93021 10.0829 8.99193 10.2314 8.99193 10.2314C8.99193 10.2314 9.31205 11.0262 9.73594 11.7452C10.564 13.1493 10.9493 13.4562 11.2301 13.3057C11.6397 13.0867 11.5169 11.3212 11.5169 11.3212C11.5169 11.3212 11.5244 10.6807 11.3108 10.3951C11.1453 10.1741 10.8333 10.1095 10.6956 10.0915C10.5837 10.0769 10.7668 9.82259 11.0042 9.70875C11.361 9.53765 11.9903 9.52767 12.7343 9.53499C13.3142 9.54098 13.4811 9.57627 13.7076 9.63019C14.2333 9.75472 14.2169 10.1538 14.1815 11.0152C14.1709 11.2728 14.1586 11.5717 14.1586 11.917C14.1586 11.9946 14.1563 12.0773 14.1539 12.1624C14.1416 12.6037 14.1276 13.109 14.4238 13.2971C14.5757 13.3929 14.9467 13.3111 15.8752 11.7639C16.3153 11.0302 16.645 10.1681 16.645 10.1681C16.645 10.1681 16.7175 10.0143 16.8294 9.94841C16.9441 9.88117 17.0987 9.90181 17.0987 9.90181L19.1835 9.88916C19.1835 9.88916 19.8102 9.81527 19.9113 10.0935C20.0177 10.3845 19.6773 11.0649 18.8254 12.1793C18.0174 13.2367 17.6241 13.6261 17.6602 13.9704C17.6866 14.222 17.9422 14.4495 18.4327 14.8962C19.4567 15.8294 19.7312 16.3204 19.7971 16.4383C19.8026 16.4481 19.8066 16.4553 19.8095 16.46C20.2687 17.2076 19.3002 17.2662 19.3002 17.2662L17.448 17.2915C17.448 17.2915 17.0505 17.3687 16.5269 17.0159C16.2527 16.8312 15.9847 16.5296 15.7294 16.2423C15.3395 15.8036 14.9794 15.3983 14.672 15.494C14.1559 15.6551 14.1715 16.7463 14.1715 16.7463C14.1715 16.7463 14.1756 16.9799 14.0582 17.1038Z" fill="#828A96"/>
</svg>
