<svg width="28" height="26" viewBox="0 0 28 26" fill="none" xmlns="http://www.w3.org/2000/svg">
<path d="M25.2408 4.15881C25.0899 2.21552 23.458 0.680054 21.4723 0.680054H3.7812C1.69624 0.680054 0 2.37243 0 4.45263V21.9075C0 23.9877 1.69624 25.6801 3.7812 25.6801H24.2188C26.3038 25.6801 28 23.9877 28 21.9075V7.79017C27.9999 6.06338 26.8306 4.60491 25.2408 4.15881ZM3.7812 2.44242H21.4723C22.4336 2.44242 23.2392 3.11769 23.4391 4.01765H3.7812C3.04091 4.01765 2.35019 4.23184 1.7664 4.60017V4.45263C1.7664 3.34421 2.67024 2.44242 3.7812 2.44242ZM24.2188 23.9177H3.7812C2.67024 23.9177 1.7664 23.0159 1.7664 21.9075V7.79017C1.7664 6.68175 2.67024 5.77997 3.7812 5.77997H24.2188C25.3298 5.77997 26.2336 6.68175 26.2336 7.79017V10.8654H20.6018C18.37 10.8654 16.5544 12.677 16.5544 14.9036C16.5544 17.1302 18.3701 18.9418 20.6018 18.9418H26.2335V21.9075C26.2335 23.0159 25.3297 23.9177 24.2188 23.9177ZM26.2335 17.1794H20.6018C19.344 17.1794 18.3208 16.1585 18.3208 14.9036C18.3208 13.6487 19.344 12.6278 20.6018 12.6278H26.2335V17.1794Z" fill="#FA8151"/>
<path d="M20.9293 15.8878C21.4371 15.8878 21.8488 15.4771 21.8488 14.9704C21.8488 14.4637 21.4371 14.053 20.9293 14.053C20.4214 14.053 20.0098 14.4637 20.0098 14.9704C20.0098 15.4771 20.4214 15.8878 20.9293 15.8878Z" fill="#FA8151"/>
</svg>
