<svg width="92" height="92" viewBox="0 0 92 92" fill="none" xmlns="http://www.w3.org/2000/svg">
<path d="M89.5 1H32.5C32.303 0.999888 32.1079 1.03861 31.9258 1.11395C31.7438 1.18929 31.5784 1.29978 31.4391 1.43909C31.2998 1.5784 31.1893 1.7438 31.114 1.92584C31.0386 2.10788 30.9999 2.30299 31 2.5V8.5C30.9999 8.69701 31.0386 8.89212 31.114 9.07416C31.1893 9.2562 31.2998 9.4216 31.4391 9.56091C31.5784 9.70022 31.7438 9.81071 31.9258 9.88605C32.1079 9.96139 32.303 10.0001 32.5 10H35.5V14.5C35.5 14.8978 35.658 15.2794 35.9393 15.5607C36.2206 15.842 36.6022 16 37 16C37.3978 16 37.7794 15.842 38.0607 15.5607C38.342 15.2794 38.5 14.8978 38.5 14.5V10H83.5V41.5C83.4997 41.8977 83.3416 42.2791 83.0604 42.5604C82.7791 42.8416 82.3977 42.9997 82 43H40C39.6023 42.9997 39.2209 42.8416 38.9396 42.5604C38.6584 42.2791 38.5003 41.8977 38.5 41.5V32.5C38.5 32.1022 38.342 31.7206 38.0607 31.4393C37.7794 31.158 37.3978 31 37 31C36.6022 31 36.2206 31.158 35.9393 31.4393C35.658 31.7206 35.5 32.1022 35.5 32.5V41.5C35.5013 42.6931 35.9758 43.8369 36.8195 44.6805C37.6631 45.5242 38.8069 45.9987 40 46H59.5V52.2764C58.4992 52.6302 57.6557 53.3265 57.1186 54.2421C56.5814 55.1577 56.3853 56.2338 56.5648 57.28C56.7443 58.3262 57.2879 59.2753 58.0995 59.9596C58.9111 60.6438 59.9385 61.019 61 61.019C62.0615 61.019 63.0889 60.6438 63.9005 59.9596C64.7121 59.2753 65.2557 58.3262 65.4352 57.28C65.6147 56.2338 65.4186 55.1577 64.8814 54.2421C64.3443 53.3265 63.5008 52.6302 62.5 52.2764V46H82C83.1931 45.9987 84.3369 45.5242 85.1805 44.6805C86.0242 43.8369 86.4987 42.6931 86.5 41.5V10H89.5C89.697 10.0001 89.8921 9.96139 90.0742 9.88605C90.2562 9.81071 90.4216 9.70022 90.5609 9.56091C90.7002 9.4216 90.8107 9.2562 90.886 9.07416C90.9614 8.89212 91.0001 8.69701 91 8.5V2.5C91.0001 2.30299 90.9614 2.10788 90.886 1.92584C90.8107 1.7438 90.7002 1.5784 90.5609 1.43909C90.4216 1.29978 90.2562 1.18929 90.0742 1.11395C89.8921 1.03861 89.697 0.999888 89.5 1ZM61 58C60.7033 58 60.4133 57.912 60.1666 57.7472C59.92 57.5824 59.7277 57.3481 59.6142 57.074C59.5007 56.7999 59.4709 56.4983 59.5288 56.2074C59.5867 55.9164 59.7296 55.6491 59.9393 55.4393C60.1491 55.2296 60.4164 55.0867 60.7074 55.0288C60.9983 54.9709 61.2999 55.0007 61.574 55.1142C61.8481 55.2277 62.0824 55.42 62.2472 55.6666C62.412 55.9133 62.5 56.2033 62.5 56.5C62.4997 56.8977 62.3416 57.2791 62.0604 57.5604C61.7791 57.8416 61.3977 57.9997 61 58ZM88 7H34V4H88V7ZM52.4828 76.2273C53.7075 74.9556 54.5311 73.3517 54.851 71.6153C55.1709 69.8789 54.9731 68.0868 54.2821 66.4621C53.5911 64.8373 52.4375 63.4517 50.9648 62.4777C49.4922 61.5037 47.7656 60.9844 46 60.9844C44.2344 60.9844 42.5078 61.5037 41.0352 62.4777C39.5625 63.4517 38.4089 64.8373 37.7179 66.4621C37.0269 68.0868 36.8291 69.8789 37.149 71.6153C37.4689 73.3517 38.2925 74.9556 39.5172 76.2273C37.5269 76.6787 35.7488 77.7924 34.474 79.3861C33.1992 80.9799 32.5032 82.9592 32.5 85V89.5C32.5 89.8978 32.658 90.2794 32.9393 90.5607C33.2206 90.842 33.6022 91 34 91C34.3978 91 34.7794 90.842 35.0607 90.5607C35.342 90.2794 35.5 89.8978 35.5 89.5V85C35.5016 83.4092 36.1342 81.884 37.2591 80.7591C38.384 79.6342 39.9092 79.0016 41.5 79H50.5C52.0908 79.0016 53.616 79.6342 54.7409 80.7591C55.8658 81.884 56.4984 83.4092 56.5 85V89.5C56.5 89.8978 56.658 90.2794 56.9393 90.5607C57.2206 90.842 57.6022 91 58 91C58.3978 91 58.7794 90.842 59.0607 90.5607C59.342 90.2794 59.5 89.8978 59.5 89.5V85C59.4968 82.9592 58.8008 80.9799 57.526 79.3861C56.2512 77.7924 54.4731 76.6787 52.4828 76.2273ZM46 64C47.1867 64 48.3467 64.3519 49.3334 65.0112C50.3201 65.6705 51.0892 66.6075 51.5433 67.7039C51.9974 68.8003 52.1162 70.0067 51.8847 71.1705C51.6532 72.3344 51.0818 73.4035 50.2426 74.2426C49.4035 75.0818 48.3344 75.6532 47.1705 75.8847C46.0067 76.1162 44.8003 75.9974 43.7039 75.5433C42.6075 75.0891 41.6705 74.3201 41.0112 73.3334C40.3519 72.3467 40 71.1867 40 70C40.0016 68.4092 40.6342 66.884 41.7591 65.7591C42.884 64.6342 44.4092 64.0016 46 64ZM22.4828 76.2273C23.7075 74.9556 24.5311 73.3517 24.851 71.6153C25.1709 69.8789 24.9731 68.0868 24.2821 66.4621C23.5911 64.8373 22.4375 63.4517 20.9648 62.4777C19.4922 61.5037 17.7656 60.9844 16 60.9844C14.2344 60.9844 12.5078 61.5037 11.0352 62.4777C9.56254 63.4517 8.40891 64.8373 7.71791 66.4621C7.02691 68.0868 6.82906 69.8789 7.149 71.6153C7.46894 73.3517 8.29253 74.9556 9.51724 76.2273C7.52693 76.6787 5.74883 77.7924 4.47402 79.3861C3.19921 80.9799 2.50323 82.9592 2.5 85V89.5C2.5 89.8978 2.65804 90.2794 2.93934 90.5607C3.22064 90.842 3.60218 91 4 91C4.39782 91 4.77936 90.842 5.06066 90.5607C5.34196 90.2794 5.5 89.8978 5.5 89.5V85C5.50159 83.4092 6.13424 81.884 7.25911 80.7591C8.38399 79.6342 9.90919 79.0016 11.5 79H20.5C22.0908 79.0016 23.616 79.6342 24.7409 80.7591C25.8658 81.884 26.4984 83.4092 26.5 85V89.5C26.5 89.8978 26.658 90.2794 26.9393 90.5607C27.2206 90.842 27.6022 91 28 91C28.3978 91 28.7794 90.842 29.0607 90.5607C29.342 90.2794 29.5 89.8978 29.5 89.5V85C29.4968 82.9592 28.8008 80.9799 27.526 79.3861C26.2512 77.7924 24.4731 76.6787 22.4828 76.2273ZM16 64C17.1867 64 18.3467 64.3519 19.3334 65.0112C20.3201 65.6705 21.0892 66.6075 21.5433 67.7039C21.9974 68.8003 22.1162 70.0067 21.8847 71.1705C21.6532 72.3344 21.0818 73.4035 20.2426 74.2426C19.4035 75.0818 18.3344 75.6532 17.1705 75.8847C16.0067 76.1162 14.8003 75.9974 13.7039 75.5433C12.6075 75.0891 11.6705 74.3201 11.0112 73.3334C10.3519 72.3467 10 71.1867 10 70C10.0016 68.4092 10.6342 66.884 11.7591 65.7591C12.884 64.6342 14.4092 64.0016 16 64ZM82.4828 76.2273C83.7075 74.9556 84.5311 73.3517 84.851 71.6153C85.1709 69.8789 84.9731 68.0868 84.2821 66.4621C83.5911 64.8373 82.4375 63.4517 80.9648 62.4777C79.4922 61.5037 77.7656 60.9844 76 60.9844C74.2344 60.9844 72.5078 61.5037 71.0352 62.4777C69.5625 63.4517 68.4089 64.8373 67.7179 66.4621C67.0269 68.0868 66.8291 69.8789 67.149 71.6153C67.4689 73.3517 68.2925 74.9556 69.5172 76.2273C67.5269 76.6787 65.7488 77.7924 64.474 79.3861C63.1992 80.9799 62.5032 82.9592 62.5 85V89.5C62.5 89.8978 62.658 90.2794 62.9393 90.5607C63.2206 90.842 63.6022 91 64 91C64.3978 91 64.7794 90.842 65.0607 90.5607C65.342 90.2794 65.5 89.8978 65.5 89.5V85C65.5016 83.4092 66.1342 81.884 67.2591 80.7591C68.384 79.6342 69.9092 79.0016 71.5 79H80.5C82.0908 79.0016 83.616 79.6342 84.7409 80.7591C85.8658 81.884 86.4984 83.4092 86.5 85V89.5C86.5 89.8978 86.658 90.2794 86.9393 90.5607C87.2206 90.842 87.6022 91 88 91C88.3978 91 88.7794 90.842 89.0607 90.5607C89.342 90.2794 89.5 89.8978 89.5 89.5V85C89.4968 82.9592 88.8008 80.9799 87.526 79.3861C86.2512 77.7924 84.4731 76.6787 82.4828 76.2273ZM76 64C77.1867 64 78.3467 64.3519 79.3334 65.0112C80.3201 65.6705 81.0891 66.6075 81.5433 67.7039C81.9974 68.8003 82.1162 70.0067 81.8847 71.1705C81.6532 72.3344 81.0818 73.4035 80.2426 74.2426C79.4035 75.0818 78.3344 75.6532 77.1705 75.8847C76.0067 76.1162 74.8003 75.9974 73.7039 75.5433C72.6075 75.0891 71.6705 74.3201 71.0112 73.3334C70.3519 72.3467 70 71.1867 70 70C70.0016 68.4092 70.6342 66.884 71.7591 65.7591C72.884 64.6342 74.4092 64.0016 76 64ZM7 46V53.5C7 53.8978 7.15804 54.2794 7.43934 54.5607C7.72064 54.842 8.10218 55 8.5 55C8.89782 55 9.27936 54.842 9.56066 54.5607C9.84196 54.2794 10 53.8978 10 53.5V32.5C10 32.1022 9.84196 31.7206 9.56066 31.4393C9.27936 31.158 8.89782 31 8.5 31C8.10218 31 7.72064 31.158 7.43934 31.4393C7.15804 31.7206 7 32.1022 7 32.5V43H5.5C5.10226 42.9997 4.72088 42.8416 4.43963 42.5604C4.15839 42.2791 4.00027 41.8977 4 41.5V28C4.00159 26.4092 4.63424 24.884 5.75911 23.7591C6.88399 22.6342 8.40919 22.0016 10 22H38.5C38.8978 22 39.2794 22.158 39.5607 22.4393C39.842 22.7206 40 23.1022 40 23.5C40 23.8978 39.842 24.2794 39.5607 24.5607C39.2794 24.842 38.8978 25 38.5 25H26.5C26.303 24.9999 26.1079 25.0386 25.9258 25.114C25.7438 25.1893 25.5784 25.2998 25.4391 25.4391C25.2998 25.5784 25.1893 25.7438 25.114 25.9258C25.0386 26.1079 24.9999 26.303 25 26.5V53.5C25 53.8978 25.158 54.2794 25.4393 54.5607C25.7206 54.842 26.1022 55 26.5 55C26.8978 55 27.2794 54.842 27.5607 54.5607C27.842 54.2794 28 53.8978 28 53.5V28H38.5C39.6935 28 40.8381 27.5259 41.682 26.682C42.5259 25.8381 43 24.6935 43 23.5C43 22.3065 42.5259 21.1619 41.682 20.318C40.8381 19.4741 39.6935 19 38.5 19H24.1893C25.3532 17.7069 26.1174 16.1041 26.3894 14.3857C26.6613 12.6673 26.4294 10.9069 25.7216 9.31762C25.0138 7.7283 23.8606 6.37819 22.4014 5.43069C20.9423 4.48319 19.2398 3.97893 17.5 3.97893C15.7602 3.97893 14.0577 4.48319 12.5986 5.43069C11.1394 6.37819 9.98616 7.7283 9.27839 9.31762C8.57062 10.9069 8.33868 12.6673 8.61063 14.3857C8.88258 16.1041 9.64677 17.7069 10.8107 19H10C7.61385 19.0026 5.32618 19.9517 3.63892 21.6389C1.95166 23.3262 1.00261 25.6139 1 28V41.5C1.0013 42.6931 1.47583 43.8369 2.31946 44.6805C3.16309 45.5242 4.30693 45.9987 5.5 46H7ZM11.5 13C11.5 11.8133 11.8519 10.6533 12.5112 9.66658C13.1705 8.67988 14.1075 7.91085 15.2039 7.45672C16.3003 7.0026 17.5067 6.88378 18.6705 7.11529C19.8344 7.3468 20.9035 7.91824 21.7426 8.75736C22.5818 9.59647 23.1532 10.6656 23.3847 11.8295C23.6162 12.9933 23.4974 14.1997 23.0433 15.2961C22.5892 16.3925 21.8201 17.3295 20.8334 17.9888C19.8467 18.6481 18.6867 19 17.5 19C15.9092 18.9984 14.384 18.3658 13.2591 17.2409C12.1342 16.116 11.5016 14.5908 11.5 13ZM17.5 43C17.697 42.9999 17.8921 43.0386 18.0742 43.114C18.2562 43.1893 18.4216 43.2998 18.5609 43.4391C18.7002 43.5784 18.8107 43.7438 18.886 43.9258C18.9614 44.1079 19.0001 44.303 19 44.5V53.5C19 53.8978 18.842 54.2794 18.5607 54.5607C18.2794 54.842 17.8978 55 17.5 55C17.1022 55 16.7206 54.842 16.4393 54.5607C16.158 54.2794 16 53.8978 16 53.5V44.5C15.9999 44.303 16.0386 44.1079 16.114 43.9258C16.1893 43.7438 16.2998 43.5784 16.4391 43.4391C16.5784 43.2998 16.7438 43.1893 16.9258 43.114C17.1079 43.0386 17.303 42.9999 17.5 43ZM77.5 17.5C77.5001 17.697 77.4614 17.8921 77.386 18.0742C77.3107 18.2562 77.2002 18.4216 77.0609 18.5609C76.9216 18.7002 76.7562 18.8107 76.5742 18.886C76.3921 18.9614 76.197 19.0001 76 19H46C45.6022 19 45.2206 18.842 44.9393 18.5607C44.658 18.2794 44.5 17.8978 44.5 17.5C44.5 17.1022 44.658 16.7206 44.9393 16.4393C45.2206 16.158 45.6022 16 46 16H76C76.197 15.9999 76.3921 16.0386 76.5742 16.114C76.7562 16.1893 76.9216 16.2998 77.0609 16.4391C77.2002 16.5784 77.3107 16.7438 77.386 16.9258C77.4614 17.1079 77.5001 17.303 77.5 17.5ZM77.5 26.5C77.5001 26.697 77.4614 26.8921 77.386 27.0742C77.3107 27.2562 77.2002 27.4216 77.0609 27.5609C76.9216 27.7002 76.7562 27.8107 76.5742 27.886C76.3921 27.9614 76.197 28.0001 76 28H61C60.6022 28 60.2206 27.842 59.9393 27.5607C59.658 27.2794 59.5 26.8978 59.5 26.5C59.5 26.1022 59.658 25.7206 59.9393 25.4393C60.2206 25.158 60.6022 25 61 25H76C76.197 24.9999 76.3921 25.0386 76.5742 25.114C76.7562 25.1893 76.9216 25.2998 77.0609 25.4391C77.2002 25.5784 77.3107 25.7438 77.386 25.9258C77.4614 26.1079 77.5001 26.303 77.5 26.5ZM44.5 26.5C44.4999 26.303 44.5386 26.1079 44.614 25.9258C44.6893 25.7438 44.7998 25.5784 44.9391 25.4391C45.0784 25.2998 45.2438 25.1893 45.4258 25.114C45.6079 25.0386 45.803 24.9999 46 25H55C55.3978 25 55.7794 25.158 56.0607 25.4393C56.342 25.7206 56.5 26.1022 56.5 26.5C56.5 26.8978 56.342 27.2794 56.0607 27.5607C55.7794 27.842 55.3978 28 55 28H46C45.803 28.0001 45.6079 27.9614 45.4258 27.886C45.2438 27.8107 45.0784 27.7002 44.9391 27.5609C44.7998 27.4216 44.6893 27.2562 44.614 27.0742C44.5386 26.8921 44.4999 26.697 44.5 26.5ZM44.5 35.5C44.4999 35.303 44.5386 35.1079 44.614 34.9258C44.6893 34.7438 44.7998 34.5784 44.9391 34.4391C45.0784 34.2998 45.2438 34.1893 45.4258 34.114C45.6079 34.0386 45.803 33.9999 46 34H76C76.3978 34 76.7794 34.158 77.0607 34.4393C77.342 34.7206 77.5 35.1022 77.5 35.5C77.5 35.8978 77.342 36.2794 77.0607 36.5607C76.7794 36.842 76.3978 37 76 37H46C45.803 37.0001 45.6079 36.9614 45.4258 36.886C45.2438 36.8107 45.0784 36.7002 44.9391 36.5609C44.7998 36.4216 44.6893 36.2562 44.614 36.0742C44.5386 35.8921 44.4999 35.697 44.5 35.5Z" fill="#828A96" stroke="white"/>
</svg>
