<svg width="130" height="130" viewBox="0 0 130 130" fill="none" xmlns="http://www.w3.org/2000/svg">
<path d="M65 130C100.899 130 130 100.899 130 65C130 29.1015 100.899 0 65 0C29.1015 0 0 29.1015 0 65C0 100.899 29.1015 130 65 130Z" fill="#E96161"/>
<path fill-rule="evenodd" clip-rule="evenodd" d="M64.9991 117.572C93.9888 117.572 117.573 93.9863 117.573 64.9987C117.573 36.0111 93.9888 12.4254 64.9991 12.4254C36.0106 12.4254 12.4258 36.0111 12.4258 64.9987C12.4258 93.9863 36.0106 117.572 64.9991 117.572Z" fill="white"/>
<path fill-rule="evenodd" clip-rule="evenodd" d="M90.1859 41.8123C92.6022 44.2286 92.6022 48.1464 90.1859 50.5627L48.5624 92.1877C46.1461 94.6041 42.2285 94.6041 39.8122 92.1877C37.3959 89.7714 37.3959 85.8536 39.8122 83.4373L81.4358 41.8123C83.8521 39.3959 87.7696 39.3959 90.1859 41.8123Z" fill="#E96161"/>
<path fill-rule="evenodd" clip-rule="evenodd" d="M39.8141 41.8123C37.3978 44.2286 37.3978 48.1464 39.8141 50.5627L81.4376 92.1877C83.8539 94.6041 87.7715 94.6041 90.1878 92.1877C92.6041 89.7714 92.6041 85.8536 90.1878 83.4373L48.5642 41.8123C46.1479 39.3959 42.2304 39.3959 39.8141 41.8123Z" fill="#E96161"/>
</svg>
