<svg width="19" height="24" viewBox="0 0 19 24" fill="none" xmlns="http://www.w3.org/2000/svg">
<path d="M4.864 23.224C3.968 23.224 3.52 22.7547 3.52 21.816V18.264H1.376C0.650667 18.264 0.288 17.944 0.288 17.304C0.288 16.664 0.650667 16.344 1.376 16.344H3.52V13.368H1.376C0.650667 13.368 0.288 13.048 0.288 12.408C0.288 11.768 0.650667 11.448 1.376 11.448H3.52V1.784C3.52 0.887999 3.968 0.439999 4.864 0.439999H10.88C13.248 0.439999 15.0827 1.02667 16.384 2.2C17.7067 3.37333 18.368 4.97333 18.368 7C18.368 8.94133 17.7067 10.488 16.384 11.64C15.0613 12.792 13.3013 13.368 11.104 13.368H6.176V16.344H10.944C11.648 16.344 12 16.664 12 17.304C12 17.944 11.648 18.264 10.944 18.264H6.176V21.816C6.176 22.7547 5.73867 23.224 4.864 23.224ZM6.144 11.448H10.688C12.3307 11.448 13.5893 11.096 14.464 10.392C15.3387 9.66667 15.776 8.568 15.776 7.096C15.776 4.17333 14.0693 2.712 10.656 2.712H6.144V11.448Z" fill="#FA8151"/>
</svg>
