<svg width="26" height="26" viewBox="0 0 26 26" fill="none" xmlns="http://www.w3.org/2000/svg">
<path fill-rule="evenodd" clip-rule="evenodd" d="M13 0C5.8203 0 0 5.8203 0 13C0 20.1797 5.8203 26 13 26C20.1797 26 26 20.1797 26 13C26 5.8203 20.1797 0 13 0ZM18.4178 8.53095C19.0144 8.69468 19.4843 9.1771 19.6438 9.78973C19.9336 10.9 19.9336 13.2167 19.9336 13.2167C19.9336 13.2167 19.9336 15.5333 19.6438 16.6437C19.4843 17.2564 19.0144 17.7388 18.4178 17.9026C17.3365 18.2001 13.0002 18.2001 13.0002 18.2001C13.0002 18.2001 8.66398 18.2001 7.58262 17.9026C6.98596 17.7388 6.51606 17.2564 6.3566 16.6437C6.06689 15.5333 6.06689 13.2167 6.06689 13.2167C6.06689 13.2167 6.06689 10.9 6.3566 9.78973C6.51606 9.1771 6.98596 8.69468 7.58262 8.53095C8.66398 8.2334 13.0002 8.2334 13.0002 8.2334C13.0002 8.2334 17.3365 8.2334 18.4178 8.53095Z" fill="#E6E6E6"/>
<path fill-rule="evenodd" clip-rule="evenodd" d="M11.7002 15.5999V11.2666L15.1669 13.4334L11.7002 15.5999Z" fill="#E6E6E6"/>
</svg>
